<svg width="1440" height="900" viewBox="0 0 1440 900" fill="none" xmlns="http://www.w3.org/2000/svg">
<path d="M281.388 571.572C291.508 602.712 277.755 650.46 300.591 680.043C323.427 709.885 383.112 721.563 397.384 741.804C411.916 762.045 381.036 790.33 356.902 818.097C333.028 845.863 315.901 873.111 291.249 881.674C266.596 890.497 234.678 880.896 212.88 862.731C191.082 844.825 179.923 818.616 149.821 812.907C119.719 807.457 70.6739 822.768 38.7554 812.907C6.57743 803.046 -8.21407 768.273 3.98242 740.766C16.4384 712.999 56.1419 692.499 85.9844 678.745C115.567 664.992 135.03 657.726 152.935 630.738C170.581 604.009 186.67 557.04 211.582 541.21C236.754 525.381 271.267 540.172 281.388 571.572Z" fill="#F2EAFE"/>
<path d="M400.116 38.2719C410.265 45.9334 417.13 59.1669 415.737 71.1069C414.344 83.0469 404.792 93.5939 394.643 103.942C384.594 114.389 374.047 124.638 361.908 126.23C349.769 127.822 335.938 120.857 325.093 110.409C314.247 100.061 306.387 86.2309 302.506 68.7189C298.725 51.1074 299.024 29.7149 309.869 22.0534C320.715 14.3919 342.107 20.4614 359.42 24.5409C376.833 28.6204 390.066 30.6104 400.116 38.2719Z" fill="#CE9EF2"/>
<path d="M1374.81 14.7087C1386.3 18.5762 1392.49 34.2672 1391.93 48.5217C1391.38 62.6657 1384.09 75.2627 1377.68 86.0917C1371.27 96.8102 1365.74 105.871 1357.9 113.275C1350.05 120.678 1339.78 126.424 1326.41 130.734C1312.93 135.043 1296.46 137.916 1282.21 132.612C1267.95 127.308 1255.91 113.827 1255.13 99.4622C1254.36 85.0972 1264.75 69.9587 1271.27 54.7097C1277.79 39.3502 1280.33 23.8802 1289.39 19.2392C1298.45 14.5982 1314.03 20.7862 1330.16 19.7917C1346.41 18.9077 1363.2 10.8412 1374.81 14.7087Z" fill="#CE9EF2"/>
<path d="M1255.71 832.309C1264.58 842.331 1274.39 847.712 1285.57 858.262C1296.65 868.812 1309.31 884.426 1304.24 892.866C1299.29 901.2 1276.81 902.255 1261.62 911.539C1246.33 920.718 1238.41 938.231 1230.29 938.547C1222.17 938.864 1213.73 921.984 1201.8 911.645C1189.99 901.306 1174.59 897.508 1166.25 887.696C1158.02 877.885 1156.76 861.954 1160.13 846.446C1163.61 830.832 1171.53 815.534 1183.97 806.672C1196.53 797.81 1213.51 795.384 1226.07 801.503C1238.62 807.622 1246.75 822.286 1255.71 832.309Z" fill="#D3A8F4"/>
<path d="M822.152 10.1838C836.264 26.1438 851.888 34.7118 869.696 51.5118C887.336 68.3118 907.496 93.1758 899.432 106.616C891.536 119.888 855.752 121.568 831.56 136.352C807.2 150.968 794.6 178.856 781.664 179.36C768.728 179.864 755.288 152.984 736.304 136.52C717.488 120.056 692.96 114.008 679.688 98.3838C666.584 82.7598 664.568 57.3918 669.944 32.6958C675.488 7.83181 688.088 -16.5282 707.912 -30.6402C727.904 -44.7522 754.952 -48.6162 774.944 -38.8722C794.936 -29.1282 807.872 -5.77619 822.152 10.1838Z" fill="#E0C5F8"/>
</svg>
