<svg width="1440" height="900" viewBox="0 0 1440 900" fill="none" xmlns="http://www.w3.org/2000/svg">
<path d="M449.105 -44.1702C466.795 20.6041 499.05 66.5803 526.021 138.875C552.518 210.935 574.916 309.306 533.405 336.087C492.603 362.626 389.076 317.566 300.088 325.698C210.859 333.12 136.41 394.442 99.129 377.86C61.8476 361.279 61.2584 266.561 30.4936 193.58C0.203761 120.833 -60.7368 69.5884 -76.5188 6.93344C-91.8257 -55.4877 -62.2152 -130.028 -12.6373 -192.379C37.6495 -254.972 107.187 -306.317 182.888 -318.628C259.064 -330.705 340.928 -303.982 383.897 -248.6C426.866 -193.219 430.941 -109.178 449.105 -44.1702Z" fill="#E5CEFA"/>
<path d="M520.403 640.9C538.48 696.4 513.914 781.5 554.702 834.225C595.49 887.413 702.095 908.225 727.588 944.3C753.544 980.375 698.387 1030.79 655.282 1080.28C612.64 1129.76 582.049 1178.33 538.016 1193.59C493.984 1209.31 436.973 1192.2 398.039 1159.83C359.105 1127.91 339.175 1081.2 285.409 1071.03C231.643 1061.31 144.041 1088.6 87.031 1071.03C29.557 1053.45 3.13749 991.475 24.922 942.45C47.17 892.963 118.085 856.425 171.388 831.913C224.227 807.4 258.989 794.45 290.971 746.35C322.489 698.713 351.226 615 395.722 586.788C440.681 558.575 502.327 584.938 520.403 640.9Z" fill="#D9B6F6" fill-opacity="0.5"/>
<g clip-path="url(#clip0)">
<path d="M1444.51 282.731C1505.49 265.748 1557.75 233.863 1629.1 207.631C1700.05 181.874 1790.63 160.579 1793.6 202.709C1796.71 244.122 1712.74 347.768 1678.86 437.455C1644.28 527.376 1660.48 603.104 1629.96 640.424C1599.43 677.744 1521.77 677.131 1448.13 707.173C1374.89 736.739 1305.27 797.435 1246.88 812.525C1188.91 827.14 1141.49 796.382 1113.12 745.678C1084.88 694.258 1074.59 623.601 1099.01 547.236C1123.84 470.397 1182.95 388.325 1247.77 345.773C1312.59 303.222 1383.12 300.19 1444.51 282.731Z" fill="#F2EAFE"/>
</g>
<defs>
<clipPath id="clip0">
<rect width="1252" height="742" fill="white" transform="translate(760 717.532) rotate(-49.3947)"/>
</clipPath>
</defs>
</svg>
