<svg width="1440" height="725" viewBox="0 0 1440 725" fill="none" xmlns="http://www.w3.org/2000/svg">
<path d="M835.404 654.59C845.467 669.508 838.62 693.587 825.119 709.896C811.719 726.075 791.765 734.354 774.447 741.345C757.228 748.206 742.546 753.91 726.622 755.567C710.698 757.224 693.402 754.736 673.753 747.765C653.973 740.695 631.971 729.241 619.944 710.138C607.918 691.036 605.869 664.284 617.905 646.649C629.942 629.014 655.835 620.528 677.267 608.425C698.799 596.191 715.74 580.242 730.607 582.937C745.474 585.633 758.267 606.973 778.185 620.343C798.135 633.942 825.21 639.571 835.404 654.59Z" fill="#8B69D8"/>
<path d="M148.824 110.208C165.96 123.144 177.552 145.488 175.2 165.648C172.848 185.808 156.72 203.616 139.584 221.088C122.616 238.728 104.808 256.032 84.3119 258.72C63.8159 261.408 40.4639 249.648 22.1519 232.008C3.8399 214.536 -9.4321 191.184 -15.9841 161.616C-22.3681 131.88 -21.8641 95.7599 -3.5521 82.8239C14.7599 69.8879 50.8799 80.1359 80.1119 87.0239C109.512 93.9119 131.856 97.2719 148.824 110.208Z" fill="#9875E4"/>
<path d="M1398.77 190.468C1404.84 209.128 1396.59 237.74 1410.28 255.467C1423.96 273.349 1459.73 280.347 1468.28 292.476C1476.99 304.605 1458.48 321.554 1444.02 338.193C1429.72 354.831 1419.45 371.159 1404.68 376.29C1389.91 381.577 1370.78 375.824 1357.72 364.939C1344.66 354.209 1337.97 338.504 1319.93 335.083C1301.9 331.817 1272.51 340.992 1253.38 335.083C1234.1 329.174 1225.23 308.337 1232.54 291.854C1240.01 275.215 1263.8 262.931 1281.68 254.689C1299.41 246.448 1311.07 242.094 1321.8 225.922C1332.37 209.905 1342.01 181.76 1356.94 172.274C1372.03 162.789 1392.71 171.652 1398.77 190.468Z" fill="#9875E4"/>
</svg>
