<svg width="20" height="20" viewBox="0 0 20 20" fill="none" xmlns="http://www.w3.org/2000/svg">
<path d="M18.897 1.10297C17.9598 0.16571 16.4402 0.16571 15.5029 1.10297L6.39999 10.2059V13.6H9.7941L18.897 4.49708C19.8343 3.55982 19.8343 2.04023 18.897 1.10297Z" fill="#2F2E41"/>
<path fill-rule="evenodd" clip-rule="evenodd" d="M0.399994 5.20002C0.399994 3.87454 1.47451 2.80002 2.79999 2.80002H7.59999C8.26273 2.80002 8.79999 3.33728 8.79999 4.00002C8.79999 4.66277 8.26273 5.20002 7.59999 5.20002H2.79999V17.2H14.8V12.4C14.8 11.7373 15.3373 11.2 16 11.2C16.6627 11.2 17.2 11.7373 17.2 12.4V17.2C17.2 18.5255 16.1255 19.6 14.8 19.6H2.79999C1.47451 19.6 0.399994 18.5255 0.399994 17.2V5.20002Z" fill="#2F2E41"/>
</svg>
