<svg width="31" height="28" viewBox="0 0 31 28" fill="none" xmlns="http://www.w3.org/2000/svg">
<path d="M30.3964 11.3847C30.5915 12.3183 30.6978 13.2944 30.6978 14.313C30.6978 22.2803 24.7262 27.9455 15.707 27.9455C13.6559 27.9461 11.6248 27.5858 9.72976 26.8851C7.83468 26.1845 6.11278 25.1573 4.66245 23.8622C3.21211 22.5671 2.06176 21.0295 1.27713 19.3373C0.492505 17.6451 0.088975 15.8314 0.0896003 13.9999C0.088975 12.1683 0.492505 10.3546 1.27713 8.66243C2.06176 6.97021 3.21211 5.43263 4.66245 4.13755C6.11278 2.84246 7.83468 1.81525 9.72976 1.11461C11.6248 0.413976 13.6559 0.0536414 15.707 0.0541999C19.9239 0.0541999 23.4475 1.4397 26.1509 3.68937L21.7484 7.62062V7.6107C20.1096 6.2167 18.0297 5.50128 15.707 5.50128C10.5541 5.50128 6.36577 9.38862 6.36577 13.9914C6.36577 18.5927 10.5541 22.4885 15.707 22.4885C20.3824 22.4885 23.5649 20.1015 24.2186 16.8233H15.707V11.3847H30.398H30.3964Z" fill="white"/>
</svg>
