<svg width="1440" height="900" viewBox="0 0 1440 900" fill="none" xmlns="http://www.w3.org/2000/svg">
<path d="M265.388 622.572C275.508 653.712 261.755 701.46 284.591 731.043C307.427 760.885 367.112 772.563 381.384 792.804C395.916 813.045 365.036 841.33 340.902 869.097C317.028 896.863 299.901 924.111 275.249 932.674C250.596 941.497 218.678 931.896 196.88 913.731C175.082 895.825 163.923 869.616 133.821 863.907C103.719 858.457 54.6739 873.768 22.7554 863.907C-9.42257 854.046 -24.2141 819.273 -12.0176 791.766C0.438425 763.999 40.1419 743.499 69.9844 729.745C99.5674 715.992 119.03 708.726 136.935 681.738C154.581 655.009 170.67 608.04 195.582 592.21C220.754 576.381 255.267 591.172 265.388 622.572Z" fill="#9875E4"/>
<path d="M343.768 -20.5442C361.72 -6.99216 373.864 16.4158 371.4 37.5358C368.936 58.6558 352.04 77.3118 334.088 95.6158C316.312 114.096 297.656 132.224 276.184 135.04C254.712 137.856 230.248 125.536 211.064 107.056C191.88 88.7518 177.976 64.2878 171.112 33.3118C164.424 2.15984 164.952 -35.6802 184.136 -49.2321C203.32 -62.7841 241.16 -52.0481 271.784 -44.8321C302.584 -37.6161 325.992 -34.0962 343.768 -20.5442Z" fill="#795CD2"/>
<path d="M1377.89 0.533027C1391.31 5.04803 1398.53 23.366 1397.88 40.007C1397.24 56.519 1388.73 71.225 1381.24 83.867C1373.76 96.38 1367.31 106.958 1358.15 115.601C1348.99 124.244 1337 130.952 1321.39 135.983C1305.65 141.014 1286.43 144.368 1269.79 138.176C1253.15 131.984 1239.09 116.246 1238.18 99.476C1237.28 82.706 1249.41 65.033 1257.02 47.231C1264.63 29.3 1267.59 11.24 1278.17 5.82202C1288.75 0.404025 1306.94 7.62803 1325.77 6.46702C1344.74 5.43502 1364.34 -3.98197 1377.89 0.533027Z" fill="#7055C1"/>
<path d="M1316.27 827.829C1328.5 841.651 1342.03 849.072 1357.45 863.622C1372.73 878.172 1390.19 899.706 1383.2 911.346C1376.37 922.84 1345.37 924.295 1324.42 937.099C1303.33 949.758 1292.41 973.911 1281.21 974.347C1270.01 974.784 1258.37 951.504 1241.92 937.245C1225.63 922.986 1204.39 917.748 1192.89 904.216C1181.54 890.685 1179.8 868.714 1184.45 847.326C1189.25 825.792 1200.17 804.694 1217.33 792.472C1234.65 780.25 1258.07 776.904 1275.39 785.343C1292.7 793.782 1303.91 814.006 1316.27 827.829Z" fill="#7257C6"/>
<path d="M822.152 10.1841C836.264 26.1441 851.888 34.7121 869.696 51.5121C887.336 68.3121 907.496 93.1761 899.432 106.616C891.536 119.888 855.752 121.568 831.56 136.352C807.2 150.968 794.6 178.856 781.664 179.36C768.728 179.864 755.288 152.984 736.304 136.52C717.488 120.056 692.96 114.008 679.688 98.384C666.584 82.76 664.568 57.3921 669.944 32.6961C675.488 7.83205 688.088 -16.5279 707.912 -30.6399C727.904 -44.7519 754.952 -48.6159 774.944 -38.8719C794.936 -29.1279 807.872 -5.77595 822.152 10.1841Z" fill="#9875E4"/>
</svg>
