<svg width="50" height="50" viewBox="0 0 50 50" fill="none" xmlns="http://www.w3.org/2000/svg">
<path d="M18.459 5.37245C17.4945 9.5913 20.2881 16.7765 25.0106 16.7765C29.6999 16.7765 32.4935 9.5913 31.529 5.37245C30.7974 2.14239 27.9373 0 25.0106 0C22.0508 0 19.2239 2.14239 18.459 5.37245ZM4.72384 8.33883C3.89242 11.8985 6.28692 17.996 10.2778 17.996C14.2686 17.996 16.6631 11.8985 15.8317 8.33883C15.1998 5.60316 12.772 3.75742 10.2778 3.75742C7.78349 3.75742 5.35573 5.60316 4.72384 8.33883ZM34.1896 8.33883C33.3582 11.8985 35.7527 17.996 39.7102 17.996C43.7011 17.996 46.0956 11.8985 45.2642 8.33883C44.6323 5.60316 42.2045 3.75742 39.7102 3.75742C37.2492 3.75742 34.8215 5.60316 34.1896 8.33883ZM32.2274 46.0119L36.3845 31.8392C38.9786 23.6322 34.0233 18.5893 25.0106 18.5893C15.9647 18.5893 11.0094 23.6322 13.5702 31.8392L17.7606 46.0119C18.5255 48.385 21.6849 50 25.0106 50C28.2698 50 31.4625 48.385 32.2274 46.0119ZM11.9406 20.8635C10.311 23.0719 8.74794 26.8952 10.5438 32.6961L14.2686 45.1879C13.1379 45.8471 11.7078 46.2096 10.2778 46.2096C7.45092 46.2096 4.79036 44.8583 4.12522 42.8148L0.566713 30.7844C-1.59499 23.8299 2.59539 19.5781 10.2778 19.5781C11.1757 19.5781 12.0736 19.644 12.9051 19.7759C12.5725 20.1055 12.2399 20.501 11.9406 20.8635ZM39.7102 19.5781C47.3926 19.5781 51.6163 23.8299 49.4213 30.7844L45.8628 42.8148C45.1977 44.8583 42.5371 46.2096 39.7102 46.2096C38.2802 46.2096 36.8501 45.8471 35.7194 45.1879L39.4109 32.762C41.2401 26.8952 39.677 23.0719 38.0141 20.8635C37.7481 20.501 37.4155 20.1055 37.0829 19.7759C37.9144 19.644 38.779 19.5781 39.7102 19.5781Z" fill="url(#paint0_linear_998:14209)"/>
<defs>
<linearGradient id="paint0_linear_998:14209" x1="54.6256" y1="32.3333" x2="0.0859121" y2="5.28058" gradientUnits="userSpaceOnUse">
<stop stop-color="#CE9EF2"/>
<stop offset="1" stop-color="#E8D6FB"/>
</linearGradient>
</defs>
</svg>
