<svg width="453" height="473" viewBox="0 0 453 473" fill="none" xmlns="http://www.w3.org/2000/svg">
<rect x="24" y="2" width="427" height="342" rx="38" fill="#C0AEEA" stroke="#C0AEEA" stroke-width="4"/>
<path opacity="0.5" d="M398.747 73.9082H314.184C300.776 73.9082 289.907 84.7762 289.907 98.1825V128.752C289.907 142.159 300.776 153.027 314.184 153.027H398.747C412.154 153.027 423.023 142.159 423.023 128.752V98.1825C423.023 84.7762 412.154 73.9082 398.747 73.9082Z" fill="white"/>
<path d="M398.747 153.933H314.184C307.507 153.926 301.106 151.27 296.385 146.549C291.663 141.828 289.008 135.428 289 128.751V98.182C289.008 91.5057 291.663 85.105 296.385 80.3841C301.106 75.6632 307.507 73.0077 314.184 73H398.747C405.424 73.0077 411.825 75.6632 416.546 80.3841C421.268 85.105 423.923 91.5057 423.931 98.182V128.751C423.923 135.428 421.268 141.828 416.546 146.549C411.825 151.27 405.424 153.926 398.747 153.933ZM314.184 74.8153C307.988 74.8223 302.049 77.2864 297.668 81.667C293.287 86.0476 290.822 91.9869 290.815 98.182V128.751C290.822 134.947 293.287 140.886 297.668 145.266C302.049 149.647 307.988 152.111 314.184 152.118H398.747C404.943 152.111 410.882 149.647 415.263 145.266C419.644 140.886 422.109 134.947 422.116 128.751V98.182C422.109 91.9869 419.644 86.0476 415.263 81.667C410.882 77.2864 404.943 74.8223 398.747 74.8153L314.184 74.8153Z" fill="white"/>
<path d="M356.356 135.882C367.065 135.882 375.745 127.202 375.745 116.495C375.745 105.787 367.065 97.1074 356.356 97.1074C345.648 97.1074 336.968 105.787 336.968 116.495C336.968 127.202 345.648 135.882 356.356 135.882Z" fill="#A0616A"/>
<path d="M360.609 135.772C358.228 130.465 371.125 119.454 362.862 118.895C362.862 118.895 357.429 109.372 353.98 111.925C349.986 114.881 344.166 109.512 340.747 105.92C341.474 105.333 342.127 104.659 342.691 103.912C341.604 104.112 340.503 104.227 339.399 104.257C338.989 103.651 338.703 102.97 338.555 102.253C338.395 101.574 338.446 100.863 338.702 100.214C338.958 99.5657 339.406 99.0109 339.986 98.6243C341.239 97.926 342.84 98.3525 344.179 97.8516C344.346 97.7701 344.491 97.6492 344.601 97.4993C344.711 97.3494 344.783 97.1751 344.811 96.9911C344.912 96.5583 345.106 96.1529 345.381 95.8039C345.656 95.4549 346.005 95.1708 346.402 94.9719C346.8 94.7731 347.236 94.6643 347.68 94.6533C348.125 94.6423 348.566 94.7294 348.973 94.9084C349.128 94.9965 349.302 95.045 349.48 95.0497C350.414 94.9903 351.337 94.82 352.23 94.5423C351.228 94.0736 350.263 93.5292 349.343 92.9139C349.154 92.7856 348.965 92.6573 348.78 92.5215C349.613 91.8452 350.582 91.3567 351.62 91.0894C352.659 90.8221 353.744 90.7824 354.799 90.9729C357.013 91.4035 359.147 92.1738 361.125 93.2565C362.297 93.8277 363.467 94.3977 364.635 94.9663C367.155 96.0756 369.551 97.4485 371.782 99.0622C374.11 100.892 376.004 103.212 377.331 105.859C378.658 108.505 379.384 111.412 379.457 114.371C379.564 120.275 374.512 136.455 360.609 135.772Z" fill="#2F2E41"/>
<path d="M312.707 93.8405C316.158 93.8405 318.955 91.0434 318.955 87.5931C318.955 84.1427 316.158 81.3457 312.707 81.3457C309.256 81.3457 306.459 84.1427 306.459 87.5931C306.459 91.0434 309.256 93.8405 312.707 93.8405Z" fill="#6C63FF"/>
<path d="M311.854 90.8449C311.746 90.8449 311.64 90.8197 311.544 90.7715C311.447 90.7232 311.363 90.6532 311.298 90.5668L309.594 88.2943C309.538 88.2213 309.498 88.1381 309.475 88.0495C309.452 87.9608 309.446 87.8684 309.459 87.7777C309.471 87.6869 309.502 87.5995 309.549 87.5206C309.595 87.4416 309.657 87.3727 309.73 87.3177C309.803 87.2627 309.887 87.2228 309.976 87.2002C310.065 87.1776 310.157 87.1728 310.248 87.1861C310.338 87.1993 310.426 87.2304 310.504 87.2775C310.583 87.3246 310.651 87.3867 310.706 87.4604L311.821 88.9471L314.685 84.6513C314.787 84.4979 314.946 84.3914 315.127 84.3553C315.308 84.3192 315.496 84.3563 315.649 84.4585C315.802 84.5607 315.909 84.7197 315.945 84.9004C315.981 85.0812 315.944 85.2689 315.842 85.4222L312.433 90.5354C312.371 90.6279 312.288 90.7042 312.191 90.758C312.094 90.8118 311.985 90.8415 311.874 90.8446L311.854 90.8449Z" fill="white"/>
<path d="M402.572 97.1759C401.352 97.1759 400.159 96.8142 399.145 96.1364C398.13 95.4587 397.34 94.4954 396.873 93.3683C396.406 92.2412 396.284 91.001 396.522 89.8046C396.76 88.6081 397.347 87.509 398.21 86.6464C399.073 85.7838 400.172 85.1964 401.368 84.9584C402.565 84.7204 403.805 84.8425 404.932 85.3093C406.06 85.7762 407.023 86.5668 407.701 87.5811C408.379 88.5954 408.74 89.788 408.74 91.0079C408.74 92.6438 408.091 94.2126 406.934 95.3694C405.777 96.5261 404.208 97.1759 402.572 97.1759Z" fill="#E6E6E6"/>
<path d="M404.723 92.2985L403.432 91.0078L404.723 89.7171C404.78 89.6607 404.825 89.5936 404.856 89.5197C404.887 89.4457 404.903 89.3663 404.904 89.2861C404.904 89.2059 404.888 89.1264 404.858 89.0523C404.827 88.9781 404.782 88.9107 404.725 88.854C404.669 88.7973 404.601 88.7523 404.527 88.7218C404.453 88.6912 404.373 88.6755 404.293 88.6758C404.213 88.676 404.134 88.6922 404.06 88.7232C403.986 88.7542 403.919 88.7996 403.862 88.8567L402.571 90.1473L401.281 88.8567C401.166 88.7431 401.012 88.6795 400.851 88.6797C400.69 88.6799 400.535 88.744 400.421 88.8579C400.307 88.9718 400.243 89.1262 400.243 89.2872C400.243 89.4483 400.307 89.6029 400.42 89.7171L401.711 91.0078L400.42 92.2985C400.363 92.3549 400.318 92.422 400.287 92.4959C400.256 92.5699 400.24 92.6493 400.239 92.7295C400.239 92.8097 400.255 92.8892 400.285 92.9633C400.316 93.0375 400.361 93.1049 400.417 93.1616C400.474 93.2183 400.542 93.2633 400.616 93.2938C400.69 93.3244 400.769 93.34 400.85 93.3398C400.93 93.3396 401.009 93.3234 401.083 93.2924C401.157 93.2614 401.224 93.216 401.281 93.1589L402.571 91.8682L403.862 93.1589C403.919 93.2157 403.986 93.2608 404.06 93.2916C404.134 93.3224 404.213 93.3383 404.293 93.3384C404.373 93.3385 404.452 93.3228 404.526 93.2922C404.6 93.2617 404.667 93.2168 404.724 93.1602C404.781 93.1036 404.825 93.0364 404.856 92.9624C404.887 92.8884 404.902 92.8091 404.902 92.7291C404.902 92.649 404.886 92.5698 404.855 92.4959C404.825 92.422 404.78 92.3549 404.723 92.2985Z" fill="white"/>
<path opacity="0.5" d="M377.748 200.908H293.184C279.777 200.908 268.908 211.776 268.908 225.183V255.752C268.908 269.159 279.777 280.027 293.184 280.027H377.748C391.155 280.027 402.024 269.159 402.024 255.752V225.183C402.024 211.776 391.155 200.908 377.748 200.908Z" fill="white"/>
<path d="M377.748 280.934H293.184C286.507 280.926 280.106 278.271 275.385 273.55C270.663 268.829 268.008 262.428 268 255.752V225.182C268.008 218.506 270.663 212.105 275.385 207.384C280.106 202.663 286.507 200.008 293.184 200H377.748C384.425 200.008 390.826 202.663 395.547 207.384C400.269 212.105 402.924 218.506 402.932 225.182V255.752C402.924 262.428 400.269 268.829 395.547 273.55C390.826 278.271 384.425 280.926 377.748 280.934ZM293.184 201.815C286.988 201.822 281.049 204.286 276.668 208.667C272.287 213.048 269.822 218.987 269.815 225.182V255.752C269.822 261.947 272.287 267.886 276.668 272.267C281.049 276.647 286.988 279.112 293.184 279.119H377.748C383.943 279.112 389.883 276.647 394.264 272.267C398.645 267.886 401.109 261.947 401.116 255.752V225.182C401.109 218.987 398.645 213.048 394.264 208.667C389.883 204.286 383.943 201.822 377.748 201.815H293.184Z" fill="white"/>
<path d="M360.732 242.738C360.788 247.819 362.405 258.396 361.246 263.372L361.059 262.955C360.095 263.719 359.071 264.404 357.998 265.003C357.223 263.119 356.065 261.417 354.597 260.006C354.79 262.341 354.514 264.691 353.785 266.918C349.447 268.48 341.833 263.559 337.113 263.455C329.52 263.281 322.121 261.394 314.868 259.395C312.293 258.687 309.461 257.764 308.295 255.626C307.129 253.489 309.216 251.181 309.079 248.769C308.107 231.589 316.291 228.709 324.078 224.118C325.792 223.108 326.632 220.932 328.569 220.086C331.255 218.913 334.455 219.475 337.377 220.065C336.651 219.826 335.999 219.404 335.484 218.84C334.968 218.276 334.607 217.589 334.434 216.845C334.312 216.115 334.394 215.366 334.671 214.68C334.948 213.995 335.408 213.399 336.003 212.958C336.889 212.378 337.891 212 338.939 211.85C339.987 211.7 341.056 211.782 342.069 212.09C344.053 212.711 345.931 213.633 347.635 214.825C348.793 215.46 349.827 216.296 350.689 217.296C351.095 217.769 351.348 218.354 351.412 218.974C351.477 219.594 351.35 220.219 351.05 220.766C350.68 221.234 350.208 221.613 349.671 221.874C349.134 222.134 348.545 222.27 347.948 222.272C347.027 222.299 346.108 222.203 345.213 221.987C349.315 222.999 353.012 225.236 355.811 228.4C359.289 232.446 360.67 237.658 360.732 242.738Z" fill="#2F2E41"/>
<path d="M333.493 259.28C342.787 259.28 350.321 251.747 350.321 242.454C350.321 233.161 342.787 225.628 333.493 225.628C324.2 225.628 316.666 233.161 316.666 242.454C316.666 251.747 324.2 259.28 333.493 259.28Z" fill="#FFB6B6"/>
<path d="M351.855 239.914C349.877 242.308 346.934 242.183 344.318 241.802C343.492 241.684 342.666 241.552 341.84 241.399C341.694 240.934 341.527 240.469 341.34 240.018C340.566 238.134 339.407 236.433 337.939 235.021C338.094 236.866 337.951 238.725 337.516 240.525C335.982 240.171 334.455 239.775 332.935 239.338C331.59 239.119 330.38 238.392 329.556 237.307C328.732 236.222 328.356 234.862 328.506 233.508C326.32 235.174 323.939 236.617 321.441 236.645C320.032 236.609 318.673 236.122 317.561 235.256C316.449 234.391 315.644 233.192 315.263 231.836C314.683 229.639 314.582 227.343 314.965 225.104C315.298 222.432 316.048 219.496 317.852 218.42C319.303 217.546 320.976 218.17 322.468 218.878C325.756 220.456 328.872 222.368 331.769 224.583L331.803 225.312C332.553 221.724 335.031 218.955 337.731 218.677C339.549 218.496 341.326 219.336 343.04 220.183C345.281 221.171 347.365 222.483 349.225 224.076C351.326 225.988 352.785 228.501 353.403 231.273C354.048 234.279 353.563 237.846 351.855 239.914Z" fill="#2F2E41"/>
<path d="M335.197 216.563C335.37 216.578 334.946 216.481 335.084 216.538C335.016 216.507 334.951 216.471 334.89 216.43C334.879 216.423 334.742 216.312 334.832 216.389C334.626 216.229 334.471 216.013 334.385 215.766C334.194 215.168 334.105 214.541 334.122 213.913C334.156 213.087 334.016 212.263 333.709 211.496C333.618 211.288 333.479 211.104 333.304 210.96C333.129 210.816 332.922 210.715 332.701 210.665C332.48 210.616 332.25 210.62 332.03 210.676C331.81 210.732 331.606 210.839 331.436 210.989C330.956 211.635 330.724 212.432 330.783 213.235C330.739 214.011 330.822 214.79 331.026 215.541C331.379 216.775 332.082 217.88 333.052 218.722C334.171 219.702 335.577 220.295 337.06 220.414C337.264 220.409 337.462 220.345 337.63 220.23C337.799 220.115 337.93 219.954 338.008 219.765C338.086 219.577 338.107 219.37 338.07 219.169C338.032 218.969 337.937 218.784 337.796 218.637L335.933 216.868C335.738 216.675 335.474 216.567 335.199 216.568C334.924 216.569 334.66 216.678 334.466 216.873C334.271 217.067 334.162 217.331 334.161 217.606C334.16 217.881 334.268 218.145 334.461 218.34L336.324 220.109L337.06 218.332C336.753 218.304 336.449 218.242 336.156 218.147C335.837 218.058 335.533 217.925 335.252 217.751C334.977 217.6 334.719 217.42 334.483 217.213C334.332 217.08 334.187 216.94 334.05 216.792C334.001 216.739 333.952 216.684 333.904 216.629C333.908 216.633 333.708 216.383 333.794 216.497C333.579 216.202 333.391 215.888 333.234 215.559C333.179 215.443 333.133 215.322 333.098 215.197C333.032 214.993 332.978 214.785 332.936 214.575C332.857 214.133 332.833 213.683 332.865 213.235C332.874 213.045 332.893 212.855 332.922 212.667C332.948 212.568 332.967 212.467 332.98 212.365C332.984 212.112 332.945 212.5 332.814 212.559L332.288 212.701C332.202 212.694 332.12 212.668 332.045 212.625C331.971 212.581 331.908 212.522 331.86 212.451C331.838 212.364 331.844 212.379 331.879 212.497C331.918 212.635 331.949 212.776 331.97 212.918C332.01 213.248 332.034 213.58 332.04 213.912C332.047 214.617 332.128 215.319 332.284 216.006C332.43 216.697 332.79 217.324 333.313 217.797C333.836 218.271 334.496 218.568 335.197 218.645C335.473 218.643 335.736 218.533 335.931 218.338C336.126 218.143 336.236 217.88 336.239 217.604C336.233 217.33 336.122 217.068 335.927 216.874C335.733 216.68 335.472 216.569 335.197 216.563Z" fill="#2F2E41"/>
<path d="M293.817 220.855C297.268 220.855 300.065 218.058 300.065 214.608C300.065 211.157 297.268 208.36 293.817 208.36C290.367 208.36 287.569 211.157 287.569 214.608C287.569 218.058 290.367 220.855 293.817 220.855Z" fill="#6C63FF"/>
<path d="M292.965 217.86C292.857 217.86 292.75 217.834 292.654 217.786C292.557 217.738 292.474 217.668 292.409 217.581L290.704 215.309C290.649 215.236 290.608 215.153 290.585 215.064C290.562 214.975 290.556 214.883 290.569 214.792C290.582 214.702 290.612 214.614 290.659 214.535C290.705 214.456 290.767 214.387 290.841 214.332C290.914 214.277 290.997 214.237 291.086 214.215C291.175 214.192 291.267 214.187 291.358 214.201C291.449 214.214 291.536 214.245 291.615 214.292C291.693 214.339 291.762 214.401 291.816 214.475L292.931 215.962L295.796 211.666C295.898 211.513 296.057 211.406 296.238 211.37C296.418 211.334 296.606 211.371 296.759 211.473C296.913 211.575 297.019 211.734 297.055 211.915C297.092 212.096 297.054 212.284 296.952 212.437L293.543 217.55C293.481 217.643 293.398 217.719 293.301 217.773C293.204 217.826 293.095 217.856 292.984 217.859L292.965 217.86Z" fill="white"/>
<path d="M379.143 221.467C377.923 221.467 376.731 221.105 375.716 220.427C374.702 219.75 373.911 218.786 373.444 217.659C372.977 216.532 372.855 215.292 373.093 214.096C373.331 212.899 373.919 211.8 374.781 210.937C375.644 210.075 376.743 209.487 377.94 209.249C379.136 209.011 380.377 209.134 381.504 209.6C382.631 210.067 383.594 210.858 384.272 211.872C384.95 212.886 385.312 214.079 385.312 215.299C385.312 216.935 384.662 218.504 383.505 219.66C382.348 220.817 380.779 221.467 379.143 221.467Z" fill="#E6E6E6"/>
<path d="M381.295 216.59L380.004 215.3L381.295 214.009C381.352 213.953 381.397 213.886 381.428 213.812C381.46 213.738 381.476 213.658 381.476 213.578C381.476 213.498 381.461 213.418 381.43 213.344C381.399 213.27 381.354 213.203 381.298 213.146C381.241 213.089 381.174 213.044 381.099 213.014C381.025 212.983 380.946 212.968 380.866 212.968C380.785 212.968 380.706 212.984 380.632 213.015C380.558 213.046 380.491 213.092 380.435 213.149L379.144 214.439L377.853 213.149C377.739 213.035 377.584 212.971 377.423 212.972C377.262 212.972 377.108 213.036 376.994 213.15C376.88 213.264 376.816 213.418 376.815 213.579C376.815 213.74 376.879 213.895 376.992 214.009L378.283 215.3L376.992 216.59C376.935 216.647 376.89 216.714 376.859 216.788C376.828 216.862 376.812 216.941 376.812 217.021C376.811 217.102 376.827 217.181 376.857 217.255C376.888 217.329 376.933 217.397 376.99 217.454C377.046 217.51 377.114 217.555 377.188 217.586C377.262 217.616 377.342 217.632 377.422 217.632C377.502 217.632 377.582 217.615 377.655 217.584C377.729 217.553 377.797 217.508 377.853 217.451L379.144 216.16L380.435 217.451C380.491 217.508 380.558 217.553 380.632 217.584C380.706 217.614 380.785 217.63 380.865 217.63C380.945 217.63 381.024 217.615 381.098 217.584C381.172 217.554 381.24 217.509 381.296 217.452C381.353 217.396 381.398 217.328 381.428 217.254C381.459 217.18 381.475 217.101 381.474 217.021C381.474 216.941 381.458 216.862 381.428 216.788C381.397 216.714 381.352 216.647 381.295 216.59Z" fill="white"/>
<path d="M405.838 55.7518H41.1773C40.9365 55.7518 40.7056 55.6562 40.5354 55.486C40.3652 55.3158 40.2695 55.0849 40.2695 54.8442C40.2695 54.6035 40.3652 54.3726 40.5354 54.2024C40.7056 54.0322 40.9365 53.9365 41.1773 53.9365H405.838C406.079 53.9365 406.31 54.0322 406.48 54.2024C406.65 54.3726 406.746 54.6035 406.746 54.8442C406.746 55.0849 406.65 55.3158 406.48 55.486C406.31 55.6562 406.079 55.7518 405.838 55.7518Z" fill="white"/>
<path d="M82.0422 41.2299C85.9164 41.2299 89.057 38.0195 89.057 34.0593C89.057 30.0991 85.9164 26.8887 82.0422 26.8887C78.168 26.8887 75.0273 30.0991 75.0273 34.0593C75.0273 38.0195 78.168 41.2299 82.0422 41.2299Z" fill="white"/>
<path d="M106.276 41.2299C110.15 41.2299 113.29 38.0195 113.29 34.0593C113.29 30.0991 110.15 26.8887 106.276 26.8887C102.401 26.8887 99.2607 30.0991 99.2607 34.0593C99.2607 38.0195 102.401 41.2299 106.276 41.2299Z" fill="white"/>
<path d="M130.509 41.2299C134.383 41.2299 137.524 38.0195 137.524 34.0593C137.524 30.0991 134.383 26.8887 130.509 26.8887C126.635 26.8887 123.494 30.0991 123.494 34.0593C123.494 38.0195 126.635 41.2299 130.509 41.2299Z" fill="white"/>
<path d="M158.141 39.7264C158.03 39.7265 157.921 39.7045 157.819 39.6617C157.717 39.6188 157.625 39.556 157.548 39.4769L152.815 34.6388C152.663 34.4838 152.578 34.2756 152.578 34.0588C152.578 33.842 152.663 33.6338 152.815 33.4788L157.548 28.6411C157.624 28.5632 157.715 28.5011 157.815 28.4583C157.915 28.4155 158.023 28.3929 158.132 28.3917C158.241 28.3904 158.349 28.4107 158.45 28.4513C158.551 28.4919 158.643 28.5519 158.721 28.6281C158.799 28.7043 158.861 28.795 158.904 28.8952C158.947 28.9953 158.969 29.1029 158.97 29.2119C158.972 29.3208 158.951 29.4288 158.911 29.5299C158.87 29.631 158.81 29.7231 158.734 29.801L154.568 34.0588L158.734 38.317C158.848 38.4337 158.925 38.5815 158.956 38.7419C158.986 38.9022 158.969 39.0681 158.906 39.2185C158.842 39.369 158.736 39.4975 158.6 39.5878C158.464 39.6782 158.304 39.7263 158.141 39.7264V39.7264Z" fill="white"/>
<path d="M166.095 39.7264C165.932 39.7263 165.772 39.6782 165.636 39.5878C165.5 39.4975 165.394 39.369 165.331 39.2185C165.267 39.0681 165.25 38.9023 165.28 38.7419C165.311 38.5815 165.388 38.4337 165.502 38.317L169.668 34.0588L165.502 29.801C165.348 29.6437 165.263 29.4318 165.266 29.2119C165.268 28.9919 165.358 28.7819 165.515 28.6281C165.672 28.4743 165.884 28.3892 166.104 28.3917C166.324 28.3941 166.534 28.4838 166.688 28.6411L171.421 33.4788C171.573 33.6338 171.658 33.842 171.658 34.0588C171.658 34.2756 171.573 34.4838 171.421 34.6388L166.688 39.4769C166.611 39.556 166.519 39.6188 166.417 39.6617C166.315 39.7045 166.206 39.7265 166.095 39.7264Z" fill="white"/>
<path d="M349.839 27.7188H341.038C340.8 27.7187 340.563 27.7656 340.343 27.8569C340.123 27.9481 339.922 28.0819 339.754 28.2506C339.585 28.4193 339.451 28.6196 339.36 28.84C339.269 29.0604 339.222 29.2967 339.222 29.5352V38.3439C339.222 38.5825 339.269 38.8187 339.36 39.0391C339.451 39.2596 339.585 39.4598 339.754 39.6285C339.922 39.7972 340.123 39.931 340.343 40.0223C340.563 40.1135 340.8 40.1605 341.038 40.1604H349.839C350.322 40.1609 350.785 39.9699 351.127 39.6294C351.469 39.2889 351.663 38.8266 351.664 38.3439V29.5352C351.663 29.0526 351.469 28.5903 351.127 28.2498C350.785 27.9093 350.322 27.7183 349.839 27.7188Z" fill="white"/>
<path d="M328.272 27.7188H319.471C319.232 27.7187 318.996 27.7656 318.776 27.8569C318.555 27.9481 318.355 28.0819 318.186 28.2506C318.018 28.4193 317.884 28.6196 317.792 28.84C317.701 29.0604 317.654 29.2967 317.654 29.5352V38.3439C317.654 38.5825 317.701 38.8187 317.792 39.0391C317.884 39.2596 318.018 39.4598 318.186 39.6285C318.355 39.7972 318.555 39.931 318.776 40.0223C318.996 40.1135 319.232 40.1605 319.471 40.1604H328.272C328.755 40.1609 329.218 39.9699 329.56 39.6294C329.902 39.2889 330.095 38.8266 330.097 38.3439V29.5352C330.095 29.0526 329.902 28.5903 329.56 28.2498C329.218 27.9093 328.755 27.7183 328.272 27.7188Z" fill="white"/>
<path d="M370.163 28.1328H361.362C361.123 28.1327 360.887 28.1797 360.666 28.2709C360.446 28.3622 360.246 28.496 360.077 28.6647C359.908 28.8334 359.774 29.0337 359.683 29.2541C359.592 29.4745 359.545 29.7107 359.545 29.9493V38.758C359.545 38.9966 359.592 39.2328 359.683 39.4532C359.774 39.6736 359.908 39.8739 360.077 40.0426C360.246 40.2113 360.446 40.3451 360.666 40.4364C360.887 40.5276 361.123 40.5745 361.362 40.5745H370.163C370.645 40.5749 371.109 40.384 371.451 40.0435C371.793 39.703 371.986 39.2407 371.988 38.758V29.9493C371.986 29.4666 371.793 29.0044 371.451 28.6638C371.109 28.3233 370.645 28.1323 370.163 28.1328Z" fill="white"/>
<path d="M274.004 31.4844H203.653C203.361 31.4826 203.071 31.5384 202.801 31.6489C202.531 31.7594 202.285 31.9222 202.078 32.128C201.87 32.3338 201.706 32.5786 201.594 32.8483C201.482 33.1179 201.424 33.407 201.424 33.699C201.424 33.9911 201.482 34.2802 201.594 34.5498C201.706 34.8194 201.87 35.0642 202.078 35.2701C202.285 35.4759 202.531 35.6387 202.801 35.7492C203.071 35.8596 203.361 35.9155 203.653 35.9137H274.004C274.589 35.9099 275.148 35.675 275.561 35.26C275.973 34.8451 276.204 34.2839 276.204 33.699C276.204 33.1141 275.973 32.553 275.561 32.138C275.148 31.7231 274.589 31.4882 274.004 31.4844Z" fill="white"/>
<ellipse cx="218" cy="200" rx="2" ry="13" fill="#A0616A"/>
<path opacity="0.5" d="M184.747 98.9072H100.184C86.7761 98.9072 75.9072 109.775 75.9072 123.182V153.751C75.9072 167.158 86.7761 178.026 100.184 178.026H184.747C198.154 178.026 209.023 167.158 209.023 153.751V123.182C209.023 109.775 198.154 98.9072 184.747 98.9072Z" fill="white"/>
<path d="M184.747 178.934H100.184C93.5072 178.926 87.1059 176.27 82.3846 171.549C77.6633 166.829 75.0076 160.428 75 153.751V123.182C75.0076 116.506 77.6633 110.105 82.3846 105.384C87.1059 100.663 93.5072 98.0076 100.184 98H184.747C191.424 98.0076 197.825 100.663 202.546 105.384C207.268 110.105 209.923 116.506 209.931 123.182V153.751C209.923 160.428 207.268 166.829 202.546 171.549C197.825 176.27 191.424 178.926 184.747 178.934ZM100.184 99.8153C93.9885 99.8223 88.0487 102.286 83.6677 106.667C79.2868 111.048 76.8225 116.987 76.8155 123.182V153.751C76.8225 159.947 79.2868 165.886 83.6677 170.267C88.0487 174.647 93.9885 177.111 100.184 177.118H184.747C190.943 177.111 196.882 174.647 201.263 170.267C205.644 165.886 208.109 159.947 208.116 153.751V123.182C208.109 116.987 205.644 111.048 201.263 106.667C196.882 102.286 190.943 99.8223 184.747 99.8153H100.184Z" fill="white"/>
<path d="M143.763 163.698C154.643 163.698 163.463 154.879 163.463 144C163.463 133.121 154.643 124.302 143.763 124.302C132.883 124.302 124.063 133.121 124.063 144C124.063 154.879 132.883 163.698 143.763 163.698Z" fill="#FFB6B6"/>
<path d="M130.93 149.061C130.685 148.979 130.426 148.95 130.168 148.977C129.911 149.003 129.663 149.085 129.44 149.216C129.217 149.347 129.025 149.524 128.876 149.735C128.728 149.947 128.626 150.188 128.579 150.442C128.514 150.964 128.556 151.493 128.703 151.998C128.85 152.503 129.098 152.972 129.433 153.377C130.106 154.183 130.708 155.044 131.235 155.952C131.492 156.411 131.612 156.934 131.582 157.459C131.551 157.985 131.372 158.49 131.064 158.917C130.728 159.244 130.307 159.468 129.848 159.565C129.39 159.662 128.914 159.626 128.475 159.463C127.601 159.122 126.828 158.563 126.229 157.841C122.463 153.755 118.534 146.972 120.46 141.76C120.619 141.203 120.683 140.622 120.647 140.044C120.684 139.381 120.807 138.381 120.182 138.156C118.439 137.527 123.331 127.337 130.881 125.12C130.513 121.64 148.678 116.636 147.686 121.004C147.508 121.788 149.262 121.362 150.065 121.405C156.228 121.739 163.188 123.287 162.627 130.43C162.41 133.196 163.554 132.558 164.473 135.176C163.041 136.029 162.572 137.9 161.469 136.651C160.365 135.403 159.423 133.839 157.842 133.315C156.158 132.756 154.331 133.591 152.894 134.633C151.458 135.674 150.141 136.968 148.452 137.514C146.559 138.125 144.495 137.7 142.52 137.947C139.704 138.431 137.16 139.925 135.367 142.15C133.599 144.361 132.107 146.78 130.923 149.352" fill="#2F2E41"/>
<path d="M103.833 119.733C107.283 119.733 110.081 116.936 110.081 113.486C110.081 110.035 107.283 107.238 103.833 107.238C100.382 107.238 97.585 110.035 97.585 113.486C97.585 116.936 100.382 119.733 103.833 119.733Z" fill="#6C63FF"/>
<path d="M102.98 116.737C102.872 116.737 102.766 116.711 102.67 116.663C102.573 116.615 102.489 116.545 102.424 116.458L100.72 114.186C100.664 114.113 100.624 114.03 100.601 113.941C100.578 113.852 100.572 113.76 100.585 113.669C100.597 113.578 100.628 113.491 100.675 113.412C100.721 113.333 100.783 113.264 100.856 113.209C100.929 113.154 101.013 113.114 101.102 113.092C101.191 113.069 101.283 113.064 101.374 113.078C101.464 113.091 101.552 113.122 101.63 113.169C101.709 113.216 101.777 113.278 101.832 113.352L102.947 114.839L105.811 110.543C105.862 110.467 105.927 110.402 106.003 110.351C106.079 110.3 106.164 110.265 106.253 110.247C106.343 110.229 106.435 110.229 106.524 110.247C106.614 110.264 106.699 110.3 106.775 110.35C106.851 110.401 106.916 110.466 106.967 110.542C107.018 110.617 107.053 110.703 107.071 110.792C107.089 110.882 107.089 110.974 107.071 111.063C107.054 111.153 107.018 111.238 106.968 111.314L103.559 116.427C103.497 116.519 103.414 116.596 103.317 116.65C103.22 116.703 103.111 116.733 103 116.736L102.98 116.737Z" fill="white"/>
<path d="M186.436 119.437C185.216 119.437 184.023 119.075 183.009 118.397C181.995 117.719 181.204 116.756 180.737 115.629C180.27 114.502 180.148 113.262 180.386 112.065C180.624 110.869 181.212 109.77 182.074 108.907C182.937 108.045 184.036 107.457 185.233 107.219C186.429 106.981 187.67 107.103 188.797 107.57C189.924 108.037 190.887 108.828 191.565 109.842C192.243 110.856 192.605 112.049 192.605 113.269C192.605 114.905 191.955 116.473 190.798 117.63C189.641 118.787 188.072 119.437 186.436 119.437Z" fill="#E6E6E6"/>
<path d="M188.587 114.559L187.296 113.269L188.587 111.978C188.7 111.863 188.763 111.709 188.763 111.548C188.762 111.388 188.698 111.234 188.584 111.12C188.471 111.006 188.317 110.942 188.156 110.942C187.995 110.941 187.841 111.004 187.726 111.117L186.436 112.408L185.145 111.117C185.031 111.004 184.876 110.94 184.715 110.94C184.554 110.941 184.4 111.005 184.286 111.119C184.172 111.232 184.108 111.387 184.107 111.548C184.107 111.709 184.171 111.864 184.284 111.978L185.575 113.269L184.284 114.559C184.227 114.616 184.182 114.683 184.151 114.757C184.12 114.831 184.104 114.91 184.104 114.99C184.103 115.07 184.119 115.15 184.149 115.224C184.18 115.298 184.225 115.366 184.282 115.422C184.338 115.479 184.406 115.524 184.48 115.555C184.554 115.585 184.634 115.601 184.714 115.601C184.794 115.6 184.873 115.584 184.947 115.553C185.021 115.522 185.089 115.477 185.145 115.42L186.436 114.129L187.726 115.42C187.841 115.533 187.995 115.597 188.156 115.597C188.317 115.596 188.472 115.532 188.586 115.418C188.7 115.305 188.764 115.15 188.764 114.989C188.764 114.828 188.701 114.673 188.587 114.559Z" fill="white"/>
<g filter="url(#filter0_d_3286_227502)">
<rect x="188" y="149" width="87.8881" height="44.1661" rx="22.083" fill="#815ED4"/>
<path d="M205.078 177.583V165.421H206.937L212.253 174.299H211.28L216.51 165.421H218.369L218.386 177.583H216.249L216.232 168.774H216.684L212.236 176.193H211.228L206.711 168.774H207.232V177.583H205.078ZM227.179 177.583V175.707L227.058 175.307V172.023C227.058 171.386 226.867 170.894 226.484 170.546C226.102 170.187 225.523 170.008 224.747 170.008C224.226 170.008 223.71 170.089 223.201 170.251C222.702 170.413 222.28 170.639 221.932 170.929L221.081 169.347C221.579 168.965 222.17 168.681 222.853 168.496C223.548 168.299 224.266 168.201 225.008 168.201C226.351 168.201 227.388 168.525 228.118 169.174C228.859 169.811 229.23 170.801 229.23 172.145V177.583H227.179ZM224.26 177.705C223.565 177.705 222.957 177.589 222.436 177.357C221.915 177.114 221.509 176.784 221.22 176.367C220.942 175.938 220.803 175.458 220.803 174.925C220.803 174.403 220.924 173.934 221.168 173.517C221.423 173.1 221.834 172.77 222.401 172.527C222.969 172.284 223.722 172.162 224.66 172.162H227.353V173.604H224.816C224.075 173.604 223.577 173.726 223.322 173.969C223.067 174.201 222.94 174.49 222.94 174.838C222.94 175.232 223.096 175.544 223.409 175.776C223.722 176.008 224.156 176.124 224.712 176.124C225.245 176.124 225.72 176.002 226.137 175.759C226.565 175.515 226.872 175.156 227.058 174.681L227.423 175.985C227.214 176.529 226.838 176.952 226.293 177.253C225.76 177.554 225.083 177.705 224.26 177.705ZM235.509 177.705C234.49 177.705 233.702 177.444 233.146 176.923C232.59 176.39 232.312 175.608 232.312 174.577V166.255H234.484V174.525C234.484 174.965 234.594 175.307 234.814 175.55C235.046 175.793 235.364 175.915 235.77 175.915C236.256 175.915 236.662 175.788 236.986 175.533L237.594 177.079C237.339 177.288 237.026 177.444 236.656 177.548C236.285 177.653 235.903 177.705 235.509 177.705ZM230.783 170.112V168.374H236.969V170.112H230.783ZM243.332 177.705C242.359 177.705 241.49 177.502 240.726 177.097C239.973 176.68 239.382 176.112 238.954 175.394C238.525 174.676 238.311 173.859 238.311 172.944C238.311 172.017 238.525 171.201 238.954 170.494C239.382 169.776 239.973 169.214 240.726 168.809C241.49 168.403 242.359 168.201 243.332 168.201C244.235 168.201 245.029 168.386 245.712 168.757C246.407 169.116 246.934 169.649 247.293 170.355L245.625 171.328C245.347 170.888 245.006 170.564 244.6 170.355C244.206 170.147 243.778 170.042 243.315 170.042C242.782 170.042 242.301 170.158 241.872 170.39C241.444 170.622 241.108 170.958 240.865 171.398C240.622 171.826 240.5 172.342 240.5 172.944C240.5 173.546 240.622 174.068 240.865 174.508C241.108 174.936 241.444 175.266 241.872 175.498C242.301 175.73 242.782 175.846 243.315 175.846C243.778 175.846 244.206 175.741 244.6 175.533C245.006 175.324 245.347 175 245.625 174.56L247.293 175.533C246.934 176.228 246.407 176.766 245.712 177.149C245.029 177.519 244.235 177.705 243.332 177.705ZM254.35 168.201C255.092 168.201 255.752 168.346 256.331 168.635C256.922 168.925 257.385 169.371 257.721 169.973C258.057 170.564 258.225 171.328 258.225 172.266V177.583H256.053V172.544C256.053 171.722 255.856 171.108 255.462 170.703C255.08 170.297 254.542 170.095 253.847 170.095C253.337 170.095 252.885 170.199 252.491 170.407C252.097 170.616 251.791 170.929 251.57 171.346C251.362 171.751 251.258 172.266 251.258 172.892V177.583H249.086V164.691H251.258V170.807L250.789 170.042C251.113 169.452 251.582 169 252.196 168.687C252.821 168.363 253.54 168.201 254.35 168.201Z" fill="white"/>
</g>
<path d="M169.569 469.307C169.569 469.307 169.338 470.546 168.863 472.388H53.3203C52.0458 468.507 51.4781 464.51 52.996 461.208C53.2512 460.631 53.574 460.087 53.9576 459.586C54.2419 459.192 54.5598 458.824 54.9077 458.485C57.1787 456.238 58.5691 451.395 59.4033 445.88C60.4049 438.339 60.8194 430.731 60.6431 423.126C60.6547 423.114 60.6547 423.114 60.6431 423.114C60.6199 421.318 60.5736 420.241 60.5736 420.241C60.5736 420.241 60.1333 413.602 59.6351 403.569C59.6467 403.569 59.6351 403.558 59.6351 403.558C58.2679 376.482 56.4139 324.647 61.2224 310.907C61.5292 309.748 62.1508 308.698 63.0184 307.871C69.4916 303.199 76.3798 299.131 83.5963 295.718C84.0134 295.532 84.2335 295.428 84.2335 295.428L100.096 295.127L119.793 291.651L133.477 289.148C133.477 289.148 134.485 289.218 136.061 289.438C141.298 290.156 152.815 292.508 154.437 299.321C154.437 299.332 154.449 299.344 154.449 299.355C154.654 300.248 154.689 301.172 154.553 302.078C153 313.432 163.961 383.167 167.298 386.654C170.635 390.141 169.755 402.886 161.505 410.984C160.052 412.482 158.993 414.317 158.423 416.325C155.306 426.347 160.196 442.717 164.981 450.375C168.458 456.049 170.063 462.671 169.569 469.307Z" fill="#3F3D56"/>
<path d="M232.668 246.37L232.336 234.247L231.892 217.989L218.929 217.39L217.115 233.543L215.424 248.554L232.668 246.37Z" fill="#A0616A"/>
<path d="M99.8994 297.704L118.084 317.218C118.084 317.218 195.133 329.661 195.648 323.127C196.164 316.594 191.089 314.701 199.408 315.282C207.728 315.862 209.727 321.772 210.995 316.12C212.263 310.468 205.287 310.329 213.364 309.528C221.44 308.726 239.081 238.214 239.081 238.214L210.942 242.752C210.942 242.752 205.472 276.845 202.043 281.202C198.613 285.559 195.171 288.686 193.056 288.874C190.94 289.063 99.8994 297.704 99.8994 297.704Z" fill="#3F3D56"/>
<path d="M110.327 272.476C125.081 272.476 137.041 260.517 137.041 245.764C137.041 231.012 125.081 219.053 110.327 219.053C95.5735 219.053 83.6133 231.012 83.6133 245.764C83.6133 260.517 95.5735 272.476 110.327 272.476Z" fill="#A0616A"/>
<path d="M89.5102 268.77L100.1 270.797C100.1 270.797 90.2517 254.901 90.8311 247.626C91.4104 240.35 99.3357 237.743 99.3357 237.743C99.3357 237.743 103.727 238.693 108.35 239.226C108.904 237.667 109.622 236.172 110.494 234.765C110.665 236.581 111.469 238.279 112.765 239.562C114.459 239.707 116.165 239.51 117.782 238.983C119.612 238.148 119.578 236.7 118.975 235.345C127.793 235.773 136.146 240.06 136.146 240.06C136.413 236.503 136.277 232.928 135.741 229.401C135.486 229.332 135.231 229.251 134.976 229.17C133.397 228.67 131.875 228.006 130.434 227.188C132.037 226.976 133.535 226.271 134.721 225.172C133.748 222.322 132.195 219.855 129.751 218.65C127.392 217.496 124.813 216.863 122.188 216.793C119.563 216.723 116.954 217.218 114.537 218.244C114.537 218.244 120.203 214.108 118.118 212.417C117.979 212.556 117.84 212.683 117.689 212.811C117.492 212.973 117.272 213.146 117.063 213.309C115.777 214.351 113.854 212.88 113.599 211.304C113.571 211.105 113.533 210.908 113.483 210.713C113.448 210.551 113.402 210.389 113.355 210.238C113.316 210.105 113.27 209.973 113.216 209.845C109.358 208.918 97.6903 212.683 93.2063 220.978C93.2063 220.978 61.8644 236.04 89.5102 268.77Z" fill="#3F3D56"/>
<path d="M76.7025 472.388H61.7323L61.2222 471.543L53.9577 459.586L49.9482 452.982L59.4031 445.88L63.8528 442.544L73.6662 465.332L76.7025 472.388Z" fill="#A0616A"/>
<path d="M83.6006 295.718L120.956 382.02L136.065 289.438C134.489 289.218 133.481 289.149 133.481 289.149L127.051 276.659L90.2165 278.571L84.2378 295.428C84.2378 295.428 84.0177 295.532 83.6006 295.718Z" fill="#6C63FF"/>
<path d="M132.747 472.388H103.328L122.111 419.094L131.669 467.024L132.747 472.388Z" fill="#6C63FF"/>
<path d="M89.0929 307.657L62.4436 308.816C62.4436 308.816 23.0489 376.013 27.6836 380.647C32.3183 385.282 37.053 382.651 31.2096 388.6C25.3663 394.55 19.5729 392.233 23.0489 396.867C26.5249 401.502 31.1596 396.287 26.5249 402.949C21.8903 409.612 59.5469 472.389 59.5469 472.389L75.7683 464.279C75.7683 464.279 59.9829 422.803 58.8959 417.366C57.809 411.929 57.6656 407.281 58.8959 405.55C60.1263 403.819 89.0929 307.657 89.0929 307.657Z" fill="#3F3D56"/>
<path d="M225.465 222.784C231.481 222.784 236.358 217.907 236.358 211.892C236.358 205.876 231.481 201 225.465 201C219.449 201 214.572 205.876 214.572 211.892C214.572 217.907 219.449 222.784 225.465 222.784Z" fill="#A0616A"/>
<path d="M0 471C0 471.555 0.222247 472 0.499005 472H219.501C219.778 472 220 471.555 220 471C220 470.445 219.778 470 219.501 470H0.499005C0.222247 470 0 470.445 0 471Z" fill="#3F3D56"/>
<defs>
<filter id="filter0_d_3286_227502" x="184.139" y="145.139" width="103.332" height="59.6101" filterUnits="userSpaceOnUse" color-interpolation-filters="sRGB">
<feFlood flood-opacity="0" result="BackgroundImageFix"/>
<feColorMatrix in="SourceAlpha" type="matrix" values="0 0 0 0 0 0 0 0 0 0 0 0 0 0 0 0 0 0 127 0" result="hardAlpha"/>
<feOffset dx="3.86101" dy="3.86101"/>
<feGaussianBlur stdDeviation="3.86101"/>
<feColorMatrix type="matrix" values="0 0 0 0 0 0 0 0 0 0 0 0 0 0 0 0 0 0 0.1 0"/>
<feBlend mode="normal" in2="BackgroundImageFix" result="effect1_dropShadow_3286_227502"/>
<feBlend mode="normal" in="SourceGraphic" in2="effect1_dropShadow_3286_227502" result="shape"/>
</filter>
</defs>
</svg>
