<svg id="svg" version="1.1" xmlns="http://www.w3.org/2000/svg" xmlns:xlink="http://www.w3.org/1999/xlink" width="400" height="400" viewBox="0, 0, 400,400"><g id="svgg"><path id="path0" d="M212.000 93.997 L 212.000 188.000 306.003 188.000 L 400.007 188.000 399.903 97.133 C 399.821 24.869,399.698 6.233,399.300 6.100 C 399.025 6.008,398.800 5.674,398.800 5.356 C 398.800 4.605,395.395 1.200,394.644 1.200 C 394.326 1.200,393.992 0.975,393.900 0.700 C 393.767 0.302,375.131 0.179,302.867 0.097 L 212.000 -0.007 212.000 93.997 " stroke="none" fill="#4cac54" fill-rule="evenodd"></path><path id="path1" d="M6.900 0.282 C 6.405 0.378,6.000 0.623,6.000 0.828 C 6.000 1.033,5.725 1.200,5.389 1.200 C 4.614 1.200,1.200 4.587,1.200 5.356 C 1.200 5.674,0.975 6.008,0.700 6.100 C 0.302 6.233,0.179 24.869,0.097 97.133 L -0.007 188.000 93.997 188.000 L 188.000 188.000 188.000 94.000 L 188.000 0.000 97.900 0.054 C 48.345 0.084,7.395 0.187,6.900 0.282 " stroke="none" fill="#f44434" fill-rule="evenodd"></path><path id="path2" d="M212.000 306.003 L 212.000 400.007 302.867 399.903 C 375.131 399.821,393.767 399.698,393.900 399.300 C 393.992 399.025,394.326 398.800,394.644 398.800 C 395.395 398.800,398.800 395.395,398.800 394.644 C 398.800 394.326,399.025 393.992,399.300 393.900 C 399.698 393.767,399.821 375.131,399.903 302.867 L 400.007 212.000 306.003 212.000 L 212.000 212.000 212.000 306.003 " stroke="none" fill="#fcc404" fill-rule="evenodd"></path><path id="path3" d="M0.097 302.867 C 0.179 375.131,0.302 393.767,0.700 393.900 C 0.975 393.992,1.200 394.326,1.200 394.644 C 1.200 395.395,4.605 398.800,5.356 398.800 C 5.674 398.800,6.008 399.025,6.100 399.300 C 6.233 399.698,24.869 399.821,97.133 399.903 L 188.000 400.007 188.000 306.003 L 188.000 212.000 93.997 212.000 L -0.007 212.000 0.097 302.867 " stroke="none" fill="#2494f4" fill-rule="evenodd"></path><path id="path4" d="" stroke="none" fill="#9484d0" fill-rule="evenodd"></path></g></svg>