<svg width="120" height="16" viewBox="0 0 120 16" fill="none" xmlns="http://www.w3.org/2000/svg">
<path fill-rule="evenodd" clip-rule="evenodd" d="M2 1H118C118.552 1 119 1.44771 119 2V14C119 14.5523 118.552 15 118 15H2C1.44771 15 1 14.5523 1 14V2C1 1.44772 1.44772 1 2 1ZM0 2C0 0.895431 0.895431 0 2 0H118C119.105 0 120 0.895431 120 2V14C120 15.1046 119.105 16 118 16H2C0.895429 16 0 15.1046 0 14V2ZM14.07 12V5H13.07V10.22L8.87 5H8.05V12H9.05V6.78L13.25 12H14.07ZM21.2452 12V11.13H17.1652V8.87H20.6752V8.02H17.1652V5.87H21.1052V5H16.1652V12H21.2452ZM30.3168 12L32.6568 5H31.7068L29.7768 10.72L27.8468 5H26.9268L24.9568 10.69L23.0668 5H22.0368L24.3768 12H25.4468L27.3568 6.41L29.2668 12H30.3168ZM34.8801 5H33.8801V12H38.6701V11.13H34.8801V5ZM41.7652 12V9.58L44.5452 5H43.5552L41.3052 8.69L39.0652 5H37.9952L40.7752 9.56V12H41.7652ZM54.7253 6.9L54.7353 12H55.6953L55.6853 5H54.8653L51.9853 9.92L49.0653 5H48.2453V12H49.2053V6.93L51.7353 11.15H52.1953L54.7253 6.9ZM57.7661 12L58.5361 10.25H62.2561L63.0261 12H64.0761L60.8961 5H59.9061L56.7361 12H57.7661ZM60.3961 6.02L61.9061 9.45H58.8861L60.3961 6.02ZM63.7588 5.87H66.1588V12H67.1488V5.87H69.5488V5H63.7588V5.87ZM71.7702 11.62C72.3369 11.9267 72.9702 12.08 73.6702 12.08C74.2169 12.08 74.7169 11.9867 75.1702 11.8C75.6302 11.6133 76.0202 11.34 76.3402 10.98L75.6902 10.35C75.1569 10.91 74.5002 11.19 73.7202 11.19C73.2002 11.19 72.7302 11.0733 72.3102 10.84C71.8902 10.6067 71.5602 10.2867 71.3202 9.88C71.0869 9.46667 70.9702 9.00667 70.9702 8.5C70.9702 7.99333 71.0869 7.53667 71.3202 7.13C71.5602 6.71667 71.8902 6.39333 72.3102 6.16C72.7302 5.92667 73.2002 5.81 73.7202 5.81C74.5069 5.81 75.1636 6.08667 75.6902 6.64L76.3402 6.01C76.0202 5.65 75.6336 5.38 75.1802 5.2C74.7269 5.01333 74.2269 4.92 73.6802 4.92C72.9802 4.92 72.3469 5.07667 71.7802 5.39C71.2136 5.69667 70.7702 6.12333 70.4502 6.67C70.1302 7.21 69.9702 7.82 69.9702 8.5C69.9702 9.18 70.1302 9.79333 70.4502 10.34C70.7702 10.88 71.2102 11.3067 71.7702 11.62ZM82.7868 12H83.7868V5H82.7868V8.01H78.7668V5H77.7668V12H78.7668V8.88H82.7868V12ZM85.852 12L86.622 10.25H90.342L91.112 12H92.162L88.982 5H87.992L84.822 12H85.852ZM88.482 6.02L89.992 9.45H86.972L88.482 6.02ZM98.8763 8.99C98.6429 8.69 98.3229 8.48333 97.9163 8.37C98.2029 8.23 98.4296 8.02667 98.5963 7.76C98.7696 7.49333 98.8562 7.17667 98.8562 6.81C98.8562 6.24333 98.6363 5.8 98.1963 5.48C97.7629 5.16 97.1462 5 96.3463 5H93.2063V12H96.5462C97.4196 12 98.0829 11.8367 98.5362 11.51C98.9962 11.1833 99.2262 10.7167 99.2262 10.11C99.2262 9.65667 99.1096 9.28333 98.8763 8.99ZM96.2562 8.05H94.2063V5.81H96.2562C96.7696 5.81 97.1629 5.90667 97.4362 6.1C97.7162 6.28667 97.8562 6.56333 97.8562 6.93C97.8562 7.29667 97.7162 7.57667 97.4362 7.77C97.1629 7.95667 96.7696 8.05 96.2562 8.05ZM97.7862 10.91C97.4996 11.0967 97.0729 11.19 96.5062 11.19H94.2063V8.86H96.5062C97.6462 8.86 98.2162 9.25 98.2162 10.03C98.2162 10.43 98.0729 10.7233 97.7862 10.91ZM101.775 5H100.775V12H105.565V11.13H101.775V5ZM111.792 12V11.13H107.712V8.87H111.222V8.02H107.712V5.87H111.652V5H106.712V12H111.792Z" fill="#157E2C"/>
</svg>
