<svg width="45" height="73" viewBox="0 0 45 73" fill="none" xmlns="http://www.w3.org/2000/svg">
<path d="M13.726 55.4L13.726 68L12.25 68L4.69 58.604L4.69 68L2.89 68L2.89 55.4L4.366 55.4L11.926 64.796L11.926 55.4L13.726 55.4ZM25.8674 63.284C25.8674 63.416 25.8554 63.59 25.8314 63.806L18.0914 63.806C18.1994 64.646 18.5654 65.324 19.1894 65.84C19.8254 66.344 20.6114 66.596 21.5474 66.596C22.6874 66.596 23.6054 66.212 24.3014 65.444L25.2554 66.56C24.8234 67.064 24.2834 67.448 23.6354 67.712C22.9994 67.976 22.2854 68.108 21.4934 68.108C20.4854 68.108 19.5914 67.904 18.8114 67.496C18.0314 67.076 17.4254 66.494 16.9934 65.75C16.5734 65.006 16.3634 64.166 16.3634 63.23C16.3634 62.306 16.5674 61.472 16.9754 60.728C17.3954 59.984 17.9654 59.408 18.6854 59C19.4174 58.58 20.2394 58.37 21.1514 58.37C22.0634 58.37 22.8734 58.58 23.5814 59C24.3014 59.408 24.8594 59.984 25.2554 60.728C25.6634 61.472 25.8674 62.324 25.8674 63.284ZM21.1514 59.828C20.3234 59.828 19.6274 60.08 19.0634 60.584C18.5114 61.088 18.1874 61.748 18.0914 62.564L24.2114 62.564C24.1154 61.76 23.7854 61.106 23.2214 60.602C22.6694 60.086 21.9794 59.828 21.1514 59.828ZM34.0872 68L31.3332 64.346L28.5432 68L26.6172 68L30.3792 63.122L26.7972 58.46L28.7232 58.46L31.3512 61.898L33.9612 58.46L35.8512 58.46L32.2512 63.122L36.0492 68L34.0872 68ZM43.2989 67.442C43.0469 67.658 42.7349 67.826 42.3629 67.946C41.9909 68.054 41.6069 68.108 41.2109 68.108C40.2509 68.108 39.5069 67.85 38.9789 67.334C38.4509 66.818 38.1869 66.08 38.1869 65.12L38.1869 59.882L36.5669 59.882L36.5669 58.46L38.1869 58.46L38.1869 56.372L39.9149 56.372L39.9149 58.46L42.6509 58.46L42.6509 59.882L39.9149 59.882L39.9149 65.048C39.9149 65.564 40.0409 65.96 40.2929 66.236C40.5569 66.512 40.9289 66.65 41.4089 66.65C41.9369 66.65 42.3869 66.5 42.7589 66.2L43.2989 67.442Z" fill="#CD9CF2"/>
<rect width="45" height="45" rx="22.5" transform="matrix(-1 -6.45909e-09 -6.45909e-09 1 45 0)" fill="url(#paint0_linear)"/>
<path d="M22.875 16L29 22.125L22.875 28.25" stroke="white" stroke-width="2" stroke-linecap="round" stroke-linejoin="round"/>
<path d="M29 22.125L15 22.125" stroke="white" stroke-width="2" stroke-linecap="round" stroke-linejoin="round"/>
<defs>
<linearGradient id="paint0_linear" x1="49.163" y1="29.1" x2="0.0773208" y2="4.75252" gradientUnits="userSpaceOnUse">
<stop stop-color="#CD9CF2"/>
<stop offset="1" stop-color="#E8D6FB"/>
</linearGradient>
</defs>
</svg>
