<svg width="45" height="73" viewBox="0 0 45 73" fill="none" xmlns="http://www.w3.org/2000/svg">
<rect y="1" width="45" height="45" rx="22.5" fill="url(#paint0_linear)" fill-opacity="0.5"/>
<path d="M22.125 17L16 23.125L22.125 29.25" stroke="white" stroke-width="2" stroke-linecap="round" stroke-linejoin="round"/>
<path d="M16 23.125H30" stroke="white" stroke-width="2" stroke-linecap="round" stroke-linejoin="round"/>
<path d="M6.804 54.4C8.436 54.4 9.72 54.79 10.656 55.57C11.592 56.35 12.06 57.424 12.06 58.792C12.06 60.16 11.592 61.234 10.656 62.014C9.72 62.794 8.436 63.184 6.804 63.184L3.69 63.184L3.69 67L1.89 67L1.89 54.4L6.804 54.4ZM6.75 61.618C7.89 61.618 8.76 61.378 9.36 60.898C9.96 60.406 10.26 59.704 10.26 58.792C10.26 57.88 9.96 57.184 9.36 56.704C8.76 56.212 7.89 55.966 6.75 55.966L3.69 55.966L3.69 61.618L6.75 61.618ZM15.9503 59.062C16.2503 58.51 16.6942 58.09 17.2822 57.802C17.8703 57.514 18.5843 57.37 19.4243 57.37L19.4243 59.044C19.3283 59.032 19.1963 59.026 19.0282 59.026C18.0923 59.026 17.3543 59.308 16.8143 59.872C16.2863 60.424 16.0223 61.216 16.0223 62.248L16.0223 67L14.2942 67L14.2943 57.46L15.9503 57.46L15.9503 59.062ZM30.0881 62.284C30.0881 62.416 30.0761 62.59 30.0521 62.806L22.3121 62.806C22.4201 63.646 22.7861 64.324 23.4101 64.84C24.0461 65.344 24.8321 65.596 25.7681 65.596C26.9081 65.596 27.8261 65.212 28.5221 64.444L29.4761 65.56C29.0441 66.064 28.5041 66.448 27.8561 66.712C27.2201 66.976 26.5061 67.108 25.7141 67.108C24.7061 67.108 23.8121 66.904 23.0321 66.496C22.2521 66.076 21.6461 65.494 21.2141 64.75C20.7941 64.006 20.5841 63.166 20.5841 62.23C20.5841 61.306 20.7881 60.472 21.1961 59.728C21.6161 58.984 22.1861 58.408 22.9061 58C23.6381 57.58 24.4601 57.37 25.3721 57.37C26.2841 57.37 27.0941 57.58 27.8021 58C28.5221 58.408 29.0801 58.984 29.4761 59.728C29.8841 60.472 30.0881 61.324 30.0881 62.284ZM25.3721 58.828C24.5441 58.828 23.8481 59.08 23.2841 59.584C22.7321 60.088 22.4081 60.748 22.3121 61.564L28.4321 61.564C28.3361 60.76 28.0061 60.106 27.4421 59.602C26.8901 59.086 26.2001 58.828 25.3721 58.828ZM40.7538 57.46L36.5778 67L34.8138 67L30.6378 57.46L32.4378 57.46L35.7138 65.11L39.0618 57.46L40.7538 57.46ZM42.1829 67.108C41.8469 67.108 41.5589 66.994 41.3189 66.766C41.0789 66.526 40.9589 66.226 40.9589 65.866C40.9589 65.518 41.0789 65.23 41.3189 65.002C41.5589 64.762 41.8469 64.642 42.1829 64.642C42.5189 64.642 42.8009 64.756 43.0289 64.984C43.2569 65.212 43.3709 65.506 43.3709 65.866C43.3709 66.226 43.2509 66.526 43.0109 66.766C42.7829 66.994 42.5069 67.108 42.1829 67.108Z" fill="#CD9CF2" fill-opacity="0.5"/>
<defs>
<linearGradient id="paint0_linear" x1="49.163" y1="30.1" x2="0.0773208" y2="5.75252" gradientUnits="userSpaceOnUse">
<stop stop-color="#CD9CF2"/>
<stop offset="1" stop-color="#E8D6FB"/>
</linearGradient>
</defs>
</svg>
