<svg width="976" height="19" viewBox="0 0 976 19" fill="none" xmlns="http://www.w3.org/2000/svg">
<rect width="976" height="19" fill="url(#paint0_linear)"/>
<path d="M942.972 9.848C943.485 10.0813 943.877 10.3987 944.148 10.8C944.428 11.192 944.568 11.654 944.568 12.186C944.568 12.7833 944.4 13.306 944.064 13.754C943.737 14.202 943.271 14.5473 942.664 14.79C942.057 15.0233 941.353 15.14 940.55 15.14C939.747 15.14 939.043 15.0233 938.436 14.79C937.839 14.5473 937.377 14.202 937.05 13.754C936.723 13.306 936.56 12.7833 936.56 12.186C936.56 11.654 936.695 11.192 936.966 10.8C937.237 10.3987 937.624 10.0813 938.128 9.848C937.736 9.63333 937.433 9.35333 937.218 9.008C937.013 8.65333 936.91 8.24733 936.91 7.79C936.91 7.23933 937.059 6.75867 937.358 6.348C937.666 5.93733 938.095 5.62 938.646 5.396C939.197 5.172 939.831 5.06 940.55 5.06C941.278 5.06 941.917 5.172 942.468 5.396C943.019 5.62 943.448 5.93733 943.756 6.348C944.064 6.75867 944.218 7.23933 944.218 7.79C944.218 8.24733 944.111 8.64867 943.896 8.994C943.681 9.33933 943.373 9.624 942.972 9.848ZM940.55 6.488C939.981 6.488 939.528 6.60933 939.192 6.852C938.865 7.09467 938.702 7.43533 938.702 7.874C938.702 8.294 938.865 8.63 939.192 8.882C939.528 9.12467 939.981 9.246 940.55 9.246C941.129 9.246 941.586 9.12467 941.922 8.882C942.258 8.63 942.426 8.294 942.426 7.874C942.426 7.43533 942.253 7.09467 941.908 6.852C941.572 6.60933 941.119 6.488 940.55 6.488ZM940.55 13.712C941.222 13.712 941.754 13.572 942.146 13.292C942.538 13.012 942.734 12.6247 942.734 12.13C942.734 11.6447 942.538 11.262 942.146 10.982C941.754 10.702 941.222 10.562 940.55 10.562C939.878 10.562 939.351 10.702 938.968 10.982C938.585 11.262 938.394 11.6447 938.394 12.13C938.394 12.6247 938.585 13.012 938.968 13.292C939.351 13.572 939.878 13.712 940.55 13.712ZM949.333 3.212H950.901L946.281 16.4H944.713L949.333 3.212ZM954.756 5.2V15H952.936V6.726H950.864V5.2H954.756ZM963.798 13.46V15H956.574V13.782L960.466 10.086C960.905 9.666 961.199 9.302 961.348 8.994C961.507 8.67667 961.586 8.364 961.586 8.056C961.586 7.59867 961.432 7.24867 961.124 7.006C960.816 6.76333 960.363 6.642 959.766 6.642C958.767 6.642 958.002 6.98267 957.47 7.664L956.196 6.684C956.579 6.17067 957.092 5.774 957.736 5.494C958.389 5.20467 959.117 5.06 959.92 5.06C960.984 5.06 961.833 5.312 962.468 5.816C963.103 6.32 963.42 7.006 963.42 7.874C963.42 8.406 963.308 8.90533 963.084 9.372C962.86 9.83867 962.431 10.3707 961.796 10.968L959.178 13.46H963.798Z" fill="white"/>
<defs>
<linearGradient id="paint0_linear" x1="-2.28367e-05" y1="11.4" x2="1.89653" y2="54.3818" gradientUnits="userSpaceOnUse">
<stop stop-color="#CD9CF2"/>
<stop offset="0.269459" stop-color="#D9B6F6"/>
</linearGradient>
</defs>
</svg>
