<svg width="500" height="319" viewBox="0 0 500 319" fill="none" xmlns="http://www.w3.org/2000/svg">
<g clip-path="url(#clip0)">
<path d="M400.464 238.292H21.7134V239.636H400.464V238.292Z" fill="#3F3D56"/>
<path d="M433.923 0H0V211.16H433.923V0Z" fill="#3F3D56"/>
<path opacity="0.1" d="M433.923 16.2431V10.442H420.58V0H414.779V10.442H19.1437V0H13.3425V10.442H0V16.2431H13.3425V194.917H0V200.718H13.3425V211.16H19.1437V200.718H414.779V211.16H420.58V200.718H433.923V194.917H420.58V16.2431H433.923ZM414.779 194.917H19.1437V16.2431H414.779L414.779 194.917Z" fill="black"/>
<path d="M260.211 27.8453H191.792V92.9275H260.211V27.8453Z" fill="#D0CDE1"/>
<path d="M252.437 35.6201H199.567V76.0495H252.437V35.6201Z" fill="#6C63FF"/>
<path d="M229.736 42.2643H211.201V60.7989H229.736V42.2643Z" fill="#F2F2F2"/>
<path d="M218.297 46.8992V69.4055H240.803V46.8992H218.297ZM239.827 68.4292H219.273V47.8754H239.827V68.4292Z" fill="#3F3D56"/>
<path d="M228.272 80.0624H199.515V81.576H228.272V80.0624Z" fill="#F2F2F2"/>
<path d="M226.002 34.6562C227.674 34.6562 229.029 33.3009 229.029 31.6291C229.029 29.9573 227.674 28.6021 226.002 28.6021C224.33 28.6021 222.975 29.9573 222.975 31.6291C222.975 33.3009 224.33 34.6562 226.002 34.6562Z" fill="#3F3D56"/>
<path d="M286.016 121.713H217.597V186.796H286.016V121.713Z" fill="#D0CDE1"/>
<path d="M278.241 129.488H225.372V169.918H278.241V129.488Z" fill="#6C63FF"/>
<path d="M254.077 174.687H225.319V176.201H254.077V174.687Z" fill="#F2F2F2"/>
<path d="M254.077 179.228H225.319V180.741H254.077V179.228Z" fill="#F2F2F2"/>
<path d="M234.779 155.768C238.122 155.768 240.833 153.058 240.833 149.714C240.833 146.37 238.122 143.66 234.779 143.66C231.435 143.66 228.725 146.37 228.725 149.714C228.725 153.058 231.435 155.768 234.779 155.768Z" fill="#3F3D56"/>
<path d="M251.806 155.768C255.15 155.768 257.86 153.058 257.86 149.714C257.86 146.37 255.15 143.66 251.806 143.66C248.462 143.66 245.752 146.37 245.752 149.714C245.752 153.058 248.462 155.768 251.806 155.768Z" fill="#F2F2F2"/>
<path d="M268.833 155.768C272.177 155.768 274.888 153.058 274.888 149.714C274.888 146.37 272.177 143.66 268.833 143.66C265.49 143.66 262.779 146.37 262.779 149.714C262.779 153.058 265.49 155.768 268.833 155.768Z" fill="#FF6584"/>
<path d="M251.806 128.524C253.478 128.524 254.833 127.169 254.833 125.497C254.833 123.825 253.478 122.47 251.806 122.47C250.134 122.47 248.779 123.825 248.779 125.497C248.779 127.169 250.134 128.524 251.806 128.524Z" fill="#3F3D56"/>
<path d="M181.304 101.378H112.885V166.461H181.304V101.378Z" fill="#D0CDE1"/>
<path d="M173.53 109.153H120.66V149.583H173.53V109.153Z" fill="#6C63FF"/>
<path d="M143.575 146.929C150.664 146.929 156.411 141.182 156.411 134.093C156.411 127.004 150.664 121.257 143.575 121.257C136.486 121.257 130.739 127.004 130.739 134.093C130.739 141.182 136.486 146.929 143.575 146.929Z" fill="#F2F2F2"/>
<path d="M147.358 143.994C144.175 143.994 141.064 143.05 138.417 141.281C135.771 139.513 133.708 137 132.49 134.059C131.272 131.118 130.953 127.883 131.574 124.761C132.195 121.639 133.728 118.772 135.978 116.521C138.229 114.27 141.097 112.737 144.218 112.116C147.34 111.496 150.576 111.814 153.517 113.032C156.457 114.25 158.971 116.313 160.739 118.96C162.507 121.606 163.451 124.717 163.451 127.9C163.446 132.167 161.749 136.258 158.732 139.275C155.715 142.292 151.625 143.989 147.358 143.994ZM147.358 112.392C144.291 112.392 141.293 113.302 138.742 115.006C136.192 116.71 134.204 119.132 133.031 121.966C131.857 124.799 131.55 127.918 132.148 130.926C132.746 133.934 134.223 136.697 136.392 138.866C138.561 141.035 141.324 142.512 144.333 143.11C147.341 143.709 150.459 143.402 153.293 142.228C156.126 141.054 158.548 139.066 160.252 136.516C161.956 133.966 162.866 130.968 162.866 127.9C162.861 123.789 161.226 119.847 158.319 116.94C155.411 114.032 151.47 112.397 147.358 112.392Z" fill="#3F3D56"/>
<path d="M149.365 158.136H120.608V159.65H149.365V158.136Z" fill="#F2F2F2"/>
<path d="M160.717 153.596H120.608V155.109H160.717V153.596Z" fill="#F2F2F2"/>
<path d="M147.095 108.189C148.767 108.189 150.122 106.834 150.122 105.162C150.122 103.491 148.767 102.135 147.095 102.135C145.423 102.135 144.068 103.491 144.068 105.162C144.068 106.834 145.423 108.189 147.095 108.189Z" fill="#3F3D56"/>
<path d="M106.105 26.6851H37.686V91.7673H106.105V26.6851Z" fill="#D0CDE1"/>
<path d="M98.3301 34.46H45.4609V74.8894H98.3301V34.46Z" fill="#6C63FF"/>
<path d="M77.5821 66.1101H66.2085V69.4806H77.5821V66.1101Z" fill="#3F3D56"/>
<path d="M91.3325 39.8687H52.4585V41.3132H91.3325V39.8687Z" fill="#3F3D56"/>
<path d="M91.3325 44.4429H52.4585V45.8874H91.3325V44.4429Z" fill="#3F3D56"/>
<path d="M91.3325 49.0172H52.4585V50.4616H91.3325V49.0172Z" fill="#3F3D56"/>
<path d="M91.3325 53.5913H52.4585V55.0358H91.3325V53.5913Z" fill="#3F3D56"/>
<path d="M91.3325 58.1655H52.4585V59.6099H91.3325V58.1655Z" fill="#3F3D56"/>
<path d="M74.1659 78.9022H45.4087V80.4157H74.1659V78.9022Z" fill="#F2F2F2"/>
<path d="M85.5175 82.686H45.4087V84.1996H85.5175V82.686Z" fill="#F2F2F2"/>
<path d="M71.8957 33.496C73.5675 33.496 74.9228 32.1407 74.9228 30.4689C74.9228 28.7971 73.5675 27.4418 71.8957 27.4418C70.2239 27.4418 68.8687 28.7971 68.8687 30.4689C68.8687 32.1407 70.2239 33.496 71.8957 33.496Z" fill="#3F3D56"/>
<path d="M315.745 69.2016L365.295 72.8422L379.308 73.8718L378.438 73.0016L381.07 111.068L382.385 130.1C382.439 130.869 382.493 131.638 382.545 132.407C382.588 133.047 382.764 133.663 382.007 133.821C380.501 134.135 378.933 134.265 377.407 134.458C374.306 134.849 371.197 135.178 368.082 135.446C355.618 136.516 343.089 136.594 330.613 135.681C327.495 135.452 324.383 135.162 321.277 134.809C320.121 134.678 318.687 134.629 318.265 133.333C317.83 131.997 317.755 130.479 317.559 129.093C316.683 122.918 316.086 116.711 315.768 110.473C315.12 98.0401 315.561 85.5746 317.084 73.2185C317.271 71.7054 317.475 70.1946 317.696 68.6861C317.856 67.5905 316.179 67.1176 316.018 68.2234C314.147 80.9921 313.428 93.903 313.868 106.8C314.093 113.253 314.609 119.687 315.418 126.101C315.622 127.721 315.844 129.339 316.084 130.955C316.275 132.24 316.322 133.756 317.087 134.86C317.825 135.926 319.065 136.268 320.283 136.43C321.833 136.637 323.394 136.785 324.95 136.937C337.873 138.197 350.878 138.39 363.832 137.512C367.093 137.291 370.348 137.003 373.597 136.647C375.198 136.472 376.797 136.28 378.393 136.071C379.175 135.969 379.956 135.864 380.737 135.755C381.466 135.703 382.187 135.578 382.891 135.38C384.357 134.851 384.356 133.437 384.265 132.119L383.926 127.217L383.249 117.412L380.517 77.904L380.178 73.0016C380.172 72.7729 380.078 72.5552 379.916 72.3934C379.754 72.2316 379.537 72.1379 379.308 72.1314L329.758 68.4908L315.745 67.4612C314.627 67.3791 314.633 69.1198 315.745 69.2015V69.2016Z" fill="#D0CDE1"/>
<path d="M336.979 89.7473C337.23 89.0831 336.6 90.5139 336.916 89.8808C337 89.7126 337.079 89.5425 337.168 89.3767C337.345 89.047 337.541 88.7279 337.756 88.4211C337.97 88.1152 338.294 87.9973 337.662 88.5292C337.793 88.3953 337.916 88.2535 338.029 88.1045C338.324 87.7813 338.638 87.4766 338.97 87.1919C339.209 86.9872 339.66 86.813 338.852 87.2664C339.012 87.1767 339.16 87.0425 339.313 86.9398C339.626 86.7294 339.949 86.5346 340.282 86.3556C340.448 86.266 340.616 86.1805 340.787 86.0991C341.076 85.9608 341.558 85.9132 340.647 86.1464C341.038 86.0463 341.416 85.8612 341.807 85.7502C342.14 85.6559 342.476 85.5764 342.816 85.512C343.119 85.4548 343.67 85.498 342.634 85.5218C342.819 85.5176 343.009 85.4818 343.194 85.4693C343.568 85.4438 343.943 85.4382 344.317 85.4524C344.504 85.4597 344.69 85.4782 344.877 85.4894C345.497 85.5264 343.938 85.317 344.877 85.4959C345.245 85.5659 345.609 85.6577 345.966 85.7707C346.139 85.8451 346.317 85.9076 346.499 85.9578L346.018 85.7503C346.136 85.8016 346.253 85.8553 346.369 85.9114C346.714 86.0784 347.049 86.2657 347.372 86.4724C347.532 86.5753 347.686 86.687 347.844 86.7943C348.339 87.1312 347.18 86.2272 347.883 86.8431C348.121 87.052 348.35 87.2715 348.569 87.5014C348.7 87.6392 348.828 87.7805 348.952 87.9251C349.161 88.1683 349.321 88.6126 348.885 87.8163C349.284 88.5452 349.782 89.2063 350.158 89.9577C350.478 90.5986 349.866 89.1616 350.109 89.8363C350.174 90.0183 350.245 90.1979 350.307 90.3812C350.431 90.7479 350.537 91.1198 350.627 91.4969C350.717 91.8745 350.761 92.26 350.844 92.6379C350.616 91.5978 350.783 92.1994 350.805 92.482C350.826 92.7391 350.838 92.9966 350.842 93.2547C350.848 93.5766 350.84 93.8984 350.819 94.2202C350.807 94.4085 350.765 94.6088 350.767 94.7969C350.754 93.8204 350.838 94.3067 350.777 94.6347C350.707 95.0144 350.617 95.3902 350.507 95.7604C350.452 95.9458 350.392 96.1296 350.326 96.3118C350.268 96.4733 350.207 96.6337 350.143 96.7929C350.33 96.3572 350.345 96.3158 350.188 96.6687C349.227 98.591 348.029 100.383 347.084 102.313C344.739 107.122 343.95 112.543 344.827 117.821C345.069 118.697 345.643 119.443 346.427 119.901C347.24 120.367 348.204 120.493 349.109 120.252C351.071 119.617 351.842 117.904 351.54 115.971C351.434 115.289 351.596 116.578 351.526 115.892C351.496 115.598 351.467 115.304 351.446 115.009C351.404 114.42 351.387 113.829 351.395 113.238C351.401 112.731 351.426 112.225 351.468 111.72C351.469 111.423 351.5 111.128 351.559 110.838C351.559 110.84 351.447 111.538 351.523 111.136C351.554 110.97 351.577 110.802 351.606 110.636C351.806 109.513 352.095 108.408 352.471 107.331C352.554 107.092 352.646 106.856 352.734 106.618C352.966 105.991 352.492 107.121 352.773 106.514C353.023 105.973 353.283 105.439 353.568 104.915C354.766 102.713 356.121 100.651 356.994 98.2832C357.66 96.4261 357.923 94.4486 357.767 92.482C357.444 88.4225 355.723 84.3036 352.515 81.6752C350.857 80.2953 348.897 79.3263 346.794 78.8472C344.691 78.368 342.505 78.3922 340.413 78.9177C338.117 79.4727 335.992 80.5812 334.224 82.1463C332.455 83.7115 331.097 85.6857 330.267 87.8968C329.624 89.604 330.98 91.7872 332.698 92.1784C334.678 92.6294 336.291 91.5753 336.979 89.7474V89.7473Z" fill="#D0CDE1"/>
<path d="M349.14 131.217C349.712 131.217 350.271 131.047 350.747 130.729C351.223 130.411 351.594 129.959 351.813 129.43C352.032 128.902 352.089 128.32 351.977 127.759C351.866 127.198 351.59 126.682 351.186 126.277C350.781 125.873 350.266 125.597 349.704 125.486C349.143 125.374 348.561 125.431 348.033 125.65C347.504 125.869 347.052 126.24 346.734 126.716C346.416 127.192 346.247 127.751 346.247 128.323C346.255 129.088 346.563 129.819 347.103 130.36C347.644 130.901 348.375 131.208 349.14 131.217Z" fill="#D0CDE1"/>
<path d="M35.4301 232.419H19.187V248.662H35.4301V232.419Z" fill="#6C63FF"/>
<path d="M45.2916 239.38H25.5679V219.657H45.2916V239.38ZM26.4254 238.523H44.4341V220.514H26.4254V238.523Z" fill="#3F3D56"/>
<path d="M397.086 144.738L394.765 151.699C394.765 151.699 380.263 168.522 390.705 170.843C401.147 173.163 402.307 152.859 402.307 152.859L405.207 147.058L397.086 144.738Z" fill="#FFB8B8"/>
<path d="M413.329 60.6216C413.329 60.6216 409.848 60.0415 408.688 73.9641C407.528 87.8868 406.948 112.251 406.948 112.251L393.605 146.478L410.428 151.699L418.55 112.832L413.329 60.6216Z" fill="#575A89"/>
<path d="M405.787 267.721L404.047 278.743H419.71L419.13 267.721H405.787Z" fill="#FFB8B8"/>
<path d="M456.257 279.903L455.097 294.986L465.539 296.147V278.743L456.257 279.903Z" fill="#FFB8B8"/>
<path d="M412.169 123.854L398.826 200.428L402.307 270.042H420.29V206.81L437.694 174.323L451.616 214.931L455.097 282.804L474.821 279.323L470.18 213.191C470.18 213.191 466.699 125.014 463.218 123.854C459.738 122.693 412.169 123.854 412.169 123.854Z" fill="#2F2E41"/>
<path d="M407.528 275.262C407.528 275.262 407.528 269.461 402.887 272.942C398.246 276.423 392.445 282.804 392.445 282.804C392.445 282.804 370.401 294.986 386.064 296.727C401.727 298.467 411.589 288.605 411.589 288.605L413.329 290.345C413.329 290.345 422.611 288.605 422.611 286.285C422.544 284.34 422.35 282.402 422.031 280.483C422.031 280.483 420.81 270.643 419.39 272.663C417.97 274.682 409.848 278.743 407.528 275.262Z" fill="#2F2E41"/>
<path d="M466.119 291.506C466.119 291.506 455.677 286.285 453.356 290.926C451.036 295.566 449.296 304.848 449.296 304.848C449.296 304.848 441.754 319.351 455.097 318.191C468.439 317.031 467.859 309.489 467.859 307.749C467.859 306.008 467.279 301.948 467.859 300.207C468.439 298.467 466.119 291.506 466.119 291.506Z" fill="#2F2E41"/>
<path d="M443.205 37.7071C452.175 37.7071 459.448 30.4349 459.448 21.464C459.448 12.4932 452.175 5.22095 443.205 5.22095C434.234 5.22095 426.961 12.4932 426.961 21.464C426.961 30.4349 434.234 37.7071 443.205 37.7071Z" fill="#FFB8B8"/>
<path d="M432.472 29.2956L431.892 50.1795L452.776 48.4392V29.2956H432.472Z" fill="#FFB8B8"/>
<path d="M453.936 37.9973C453.936 37.9973 444.075 44.3785 441.174 45.5387C438.274 46.6989 431.892 40.8978 431.892 40.8978C431.892 40.8978 430.152 42.058 430.152 43.2182C430.152 44.3785 428.992 49.0194 428.992 49.0194L415.069 94.8481L416.229 127.334C416.229 127.334 458.577 131.395 463.218 126.174C467.859 120.953 460.898 46.1188 460.898 46.1188L453.936 37.9973Z" fill="#D0CDE1"/>
<path opacity="0.1" d="M451.036 50.1796C451.036 50.1796 435.373 55.9807 430.152 50.7597C430.152 50.7597 437.694 52.5 451.036 50.1796Z" fill="black"/>
<path d="M492.224 176.064C485.843 180.124 464.959 185.345 464.959 185.345C464.959 185.345 462.679 136.239 454.517 128.494C446.401 120.785 433.151 65.2044 445.067 55.5398C445.12 55.49 445.176 55.4435 445.235 55.4005L452.776 37.9972C452.776 37.9972 453.937 36.2569 456.257 38.5773C458.134 40.5887 459.878 42.7203 461.478 44.9585L461.809 45.0919L477.721 51.3397L471.34 79.7651C471.34 79.7651 498.605 172.003 492.224 176.064Z" fill="#575A89"/>
<path opacity="0.1" d="M461.809 45.092L457.417 61.2016L445.067 55.5397C445.12 55.49 445.176 55.4435 445.235 55.4005L452.776 37.9972C452.776 37.9972 453.937 36.2569 456.257 38.5773C458.134 40.5887 459.878 42.7203 461.478 44.9585L461.809 45.092Z" fill="black"/>
<path d="M431.602 40.6078L429.862 60.3315L429.769 61.2307L416.519 187.376C416.519 187.376 404.917 183.315 400.856 178.674C396.796 174.033 410.138 122.403 410.138 122.403L411.298 57.431C411.298 57.431 421.59 50.1854 425.795 46.2058C426.782 45.2777 427.431 44.5293 427.542 44.0885C428.122 41.768 431.602 40.6078 431.602 40.6078Z" fill="#575A89"/>
<path opacity="0.1" d="M431.602 40.6078L429.862 60.3315L429.769 61.2307L421.45 60.0415L425.795 46.2058C426.782 45.2777 427.431 44.5293 427.542 44.0885C428.122 41.768 431.602 40.6078 431.602 40.6078Z" fill="black"/>
<path d="M462.638 138.356L456.257 144.157C456.257 144.157 459.158 156.34 462.638 156.92C462.638 156.92 464.959 153.439 465.539 150.539C466.119 147.638 471.34 144.738 471.34 144.738L462.638 138.356Z" fill="#FFB8B8"/>
<path d="M470.18 50.1796L477.721 51.3398C477.721 51.3398 502.666 93.6879 499.765 108.771C496.865 123.854 473.66 149.959 473.66 149.959L459.157 138.356L480.622 109.351L469.6 74.5442L470.18 50.1796Z" fill="#575A89"/>
<path d="M426.925 23.2885C426.925 23.2885 426.925 8.96376 430.406 5.70816H434.583C434.583 5.70816 439.456 -1.4542 445.722 1.15029C451.988 3.75478 462.431 8.31265 461.735 15.475C461.039 22.6374 458.868 27.2652 458.868 27.2652C458.868 27.2652 457.707 27.2652 455.121 23.3715C451.666 18.1685 459.647 19.7903 449.204 17.837C438.76 15.8836 432.495 13.2791 431.102 15.8836C429.71 18.4881 426.925 23.2885 426.925 23.2885Z" fill="#2F2E41"/>
<path d="M434.514 6.68036C434.514 6.68036 435.07 2.4939 437.361 1.59247L434.514 6.68036Z" fill="#2F2E41"/>
<path d="M434.504 7.54148C434.504 7.54148 433.342 3.48122 435.082 1.74011L434.504 7.54148Z" fill="#2F2E41"/>
</g>
<defs>
<clipPath id="clip0">
<rect width="500" height="318.257" fill="white"/>
</clipPath>
</defs>
</svg>
