<svg width="507" height="262" viewBox="0 0 507 262" fill="none" xmlns="http://www.w3.org/2000/svg">
<path d="M506.327 261.941H0.673245C0.495029 261.941 0.324292 261.87 0.198457 261.743C0.0726209 261.617 0.00195312 261.445 0.00195312 261.267C0.00195312 261.088 0.0726209 260.917 0.198457 260.79C0.324292 260.664 0.495029 260.592 0.673245 260.592H506.327C506.505 260.592 506.676 260.664 506.802 260.79C506.927 260.917 506.998 261.088 506.998 261.267C506.998 261.445 506.927 261.617 506.802 261.743C506.676 261.87 506.505 261.941 506.327 261.941Z" fill="#3F3D56"/>
<path d="M158.518 32.5589C160.537 32.5589 162.174 30.918 162.174 28.8937C162.174 26.8695 160.537 25.2285 158.518 25.2285C156.498 25.2285 154.861 26.8695 154.861 28.8937C154.861 30.918 156.498 32.5589 158.518 32.5589Z" fill="#2F2E41"/>
<path d="M143.945 32.5589C145.965 32.5589 147.602 30.918 147.602 28.8937C147.602 26.8695 145.965 25.2285 143.945 25.2285C141.926 25.2285 140.289 26.8695 140.289 28.8937C140.289 30.918 141.926 32.5589 143.945 32.5589Z" fill="#2F2E41"/>
<path d="M129.372 32.5589C131.392 32.5589 133.029 30.918 133.029 28.8937C133.029 26.8695 131.392 25.2285 129.372 25.2285C127.353 25.2285 125.716 26.8695 125.716 28.8937C125.716 30.918 127.353 32.5589 129.372 32.5589Z" fill="#2F2E41"/>
<path d="M114.8 32.5589C116.819 32.5589 118.456 30.918 118.456 28.8937C118.456 26.8695 116.819 25.2285 114.8 25.2285C112.78 25.2285 111.143 26.8695 111.143 28.8937C111.143 30.918 112.78 32.5589 114.8 32.5589Z" fill="#2F2E41"/>
<path d="M158.518 47.8617C160.537 47.8617 162.174 46.2207 162.174 44.1965C162.174 42.1722 160.537 40.5312 158.518 40.5312C156.498 40.5312 154.861 42.1722 154.861 44.1965C154.861 46.2207 156.498 47.8617 158.518 47.8617Z" fill="#2F2E41"/>
<path d="M143.945 47.8617C145.965 47.8617 147.602 46.2207 147.602 44.1965C147.602 42.1722 145.965 40.5312 143.945 40.5312C141.926 40.5312 140.289 42.1722 140.289 44.1965C140.289 46.2207 141.926 47.8617 143.945 47.8617Z" fill="#2F2E41"/>
<path d="M129.372 47.8617C131.392 47.8617 133.029 46.2207 133.029 44.1965C133.029 42.1722 131.392 40.5312 129.372 40.5312C127.353 40.5312 125.716 42.1722 125.716 44.1965C125.716 46.2207 127.353 47.8617 129.372 47.8617Z" fill="#2F2E41"/>
<path d="M114.8 47.8617C116.819 47.8617 118.456 46.2207 118.456 44.1965C118.456 42.1722 116.819 40.5312 114.8 40.5312C112.78 40.5312 111.143 42.1722 111.143 44.1965C111.143 46.2207 112.78 47.8617 114.8 47.8617Z" fill="#2F2E41"/>
<path d="M158.518 63.1644C160.537 63.1644 162.174 61.5234 162.174 59.4992C162.174 57.475 160.537 55.834 158.518 55.834C156.498 55.834 154.861 57.475 154.861 59.4992C154.861 61.5234 156.498 63.1644 158.518 63.1644Z" fill="#2F2E41"/>
<path d="M143.945 63.1644C145.965 63.1644 147.602 61.5234 147.602 59.4992C147.602 57.475 145.965 55.834 143.945 55.834C141.926 55.834 140.289 57.475 140.289 59.4992C140.289 61.5234 141.926 63.1644 143.945 63.1644Z" fill="#2F2E41"/>
<path d="M129.372 63.1644C131.392 63.1644 133.029 61.5234 133.029 59.4992C133.029 57.475 131.392 55.834 129.372 55.834C127.353 55.834 125.716 57.475 125.716 59.4992C125.716 61.5234 127.353 63.1644 129.372 63.1644Z" fill="#2F2E41"/>
<path d="M114.8 63.1644C116.819 63.1644 118.456 61.5234 118.456 59.4992C118.456 57.475 116.819 55.834 114.8 55.834C112.78 55.834 111.143 57.475 111.143 59.4992C111.143 61.5234 112.78 63.1644 114.8 63.1644Z" fill="#2F2E41"/>
<path d="M158.518 78.4671C160.537 78.4671 162.174 76.8262 162.174 74.8019C162.174 72.7777 160.537 71.1367 158.518 71.1367C156.498 71.1367 154.861 72.7777 154.861 74.8019C154.861 76.8262 156.498 78.4671 158.518 78.4671Z" fill="#2F2E41"/>
<path d="M143.945 78.4671C145.965 78.4671 147.602 76.8262 147.602 74.8019C147.602 72.7777 145.965 71.1367 143.945 71.1367C141.926 71.1367 140.289 72.7777 140.289 74.8019C140.289 76.8262 141.926 78.4671 143.945 78.4671Z" fill="#2F2E41"/>
<path d="M129.372 78.4671C131.392 78.4671 133.029 76.8262 133.029 74.8019C133.029 72.7777 131.392 71.1367 129.372 71.1367C127.353 71.1367 125.716 72.7777 125.716 74.8019C125.716 76.8262 127.353 78.4671 129.372 78.4671Z" fill="#2F2E41"/>
<path d="M114.8 78.4671C116.819 78.4671 118.456 76.8262 118.456 74.8019C118.456 72.7777 116.819 71.1367 114.8 71.1367C112.78 71.1367 111.143 72.7777 111.143 74.8019C111.143 76.8262 112.78 78.4671 114.8 78.4671Z" fill="#2F2E41"/>
<path d="M158.518 93.7699C160.537 93.7699 162.174 92.1289 162.174 90.1047C162.174 88.0804 160.537 86.4395 158.518 86.4395C156.498 86.4395 154.861 88.0804 154.861 90.1047C154.861 92.1289 156.498 93.7699 158.518 93.7699Z" fill="#2F2E41"/>
<path d="M143.945 93.7699C145.965 93.7699 147.602 92.1289 147.602 90.1047C147.602 88.0804 145.965 86.4395 143.945 86.4395C141.926 86.4395 140.289 88.0804 140.289 90.1047C140.289 92.1289 141.926 93.7699 143.945 93.7699Z" fill="#2F2E41"/>
<path d="M129.372 93.7699C131.392 93.7699 133.029 92.1289 133.029 90.1047C133.029 88.0804 131.392 86.4395 129.372 86.4395C127.353 86.4395 125.716 88.0804 125.716 90.1047C125.716 92.1289 127.353 93.7699 129.372 93.7699Z" fill="#2F2E41"/>
<path d="M114.8 93.7699C116.819 93.7699 118.456 92.1289 118.456 90.1047C118.456 88.0804 116.819 86.4395 114.8 86.4395C112.78 86.4395 111.143 88.0804 111.143 90.1047C111.143 92.1289 112.78 93.7699 114.8 93.7699Z" fill="#2F2E41"/>
<path d="M158.518 109.073C160.537 109.073 162.174 107.432 162.174 105.407C162.174 103.383 160.537 101.742 158.518 101.742C156.498 101.742 154.861 103.383 154.861 105.407C154.861 107.432 156.498 109.073 158.518 109.073Z" fill="#2F2E41"/>
<path d="M143.945 109.073C145.965 109.073 147.602 107.432 147.602 105.407C147.602 103.383 145.965 101.742 143.945 101.742C141.926 101.742 140.289 103.383 140.289 105.407C140.289 107.432 141.926 109.073 143.945 109.073Z" fill="#2F2E41"/>
<path d="M129.372 109.073C131.392 109.073 133.029 107.432 133.029 105.407C133.029 103.383 131.392 101.742 129.372 101.742C127.353 101.742 125.716 103.383 125.716 105.407C125.716 107.432 127.353 109.073 129.372 109.073Z" fill="#2F2E41"/>
<path d="M114.8 109.073C116.819 109.073 118.456 107.432 118.456 105.407C118.456 103.383 116.819 101.742 114.8 101.742C112.78 101.742 111.143 103.383 111.143 105.407C111.143 107.432 112.78 109.073 114.8 109.073Z" fill="#2F2E41"/>
<path d="M126.388 205.396V206.53C126.389 208.408 127.135 210.209 128.46 211.537C129.785 212.866 131.582 213.613 133.456 213.614H184.343C186.218 213.614 188.015 212.867 189.34 211.538C190.666 210.21 191.411 208.408 191.411 206.53V205.396C191.415 203.738 190.834 202.132 189.771 200.862C189.418 200.44 189.017 200.06 188.578 199.728C188.578 199.728 160.601 199.094 160.601 198.312H133.456C131.582 198.314 129.786 199.061 128.461 200.389C127.136 201.717 126.39 203.518 126.388 205.396Z" fill="#CCCCCC"/>
<path d="M162.984 213.333H155.633V260.941H162.984V213.333Z" fill="#CCCCCC"/>
<path d="M183.904 260.682C183.904 261.478 172.766 260.99 159.026 260.99C145.286 260.99 134.147 261.478 134.147 260.682C134.147 259.886 145.286 253.573 159.026 253.573C172.766 253.573 183.904 259.886 183.904 260.682Z" fill="#CCCCCC"/>
<path d="M173.799 204.434C174.329 203.721 174.697 202.899 174.877 202.027C175.056 201.156 175.043 200.255 174.838 199.389C174.633 198.523 174.241 197.713 173.689 197.015C173.138 196.317 172.44 195.749 171.646 195.351L156.067 142.14L144.204 147.964L163.248 198.437C162.669 199.819 162.616 201.366 163.098 202.784C163.581 204.202 164.565 205.394 165.866 206.133C167.166 206.873 168.692 207.108 170.154 206.795C171.616 206.482 172.913 205.642 173.799 204.434L173.799 204.434Z" fill="#A0616A"/>
<path d="M159.596 151.026L146.319 154.629C145.941 154.732 145.546 154.751 145.16 154.687C144.774 154.623 144.406 154.475 144.082 154.256C143.757 154.036 143.484 153.749 143.281 153.414C143.077 153.078 142.948 152.703 142.902 152.314L141.298 138.662C140.785 136.721 141.062 134.657 142.066 132.92C143.07 131.184 144.72 129.917 146.655 129.398C148.589 128.879 150.65 129.151 152.385 130.153C154.12 131.154 155.388 132.805 155.911 134.742L161.381 147.3C161.538 147.659 161.615 148.048 161.608 148.441C161.601 148.833 161.509 149.219 161.34 149.573C161.171 149.926 160.927 150.239 160.626 150.49C160.326 150.741 159.974 150.924 159.596 151.026H159.596Z" fill="#FF6584"/>
<path d="M177.269 255.102L184.201 255.101L187.499 237.081H177.268L177.269 255.102Z" fill="#A0616A"/>
<path d="M175.501 252.834L189.152 252.833H189.153C190.295 252.833 191.426 253.059 192.482 253.497C193.537 253.935 194.496 254.577 195.304 255.387C196.112 256.197 196.753 257.158 197.19 258.216C197.627 259.274 197.852 260.408 197.852 261.553V261.837L175.501 261.838L175.501 252.834Z" fill="#2F2E41"/>
<path d="M185.315 245.438C185.234 245.438 185.153 245.434 185.072 245.427L175.479 244.726C175.091 244.69 174.716 244.565 174.384 244.361C174.052 244.157 173.771 243.879 173.563 243.549C173.354 243.219 173.225 242.845 173.184 242.457C173.142 242.069 173.191 241.676 173.325 241.309L186.163 212.396C186.255 212.138 186.293 211.864 186.274 211.591C186.254 211.318 186.179 211.052 186.052 210.81C185.926 210.564 185.749 210.349 185.534 210.177C185.318 210.005 185.069 209.881 184.802 209.812C178.765 208.23 163.275 204.018 149.867 199.09C144.122 196.979 140.504 193.927 139.113 190.021C137.279 184.871 139.992 180.174 140.109 179.977L140.2 179.822L152.817 180.972L166.495 182.138L196.47 198.25C198.982 199.611 200.89 201.871 201.814 204.58C202.738 207.288 202.61 210.245 201.456 212.864L187.637 243.927C187.437 244.376 187.111 244.759 186.699 245.027C186.287 245.295 185.806 245.438 185.315 245.438Z" fill="#2F2E41"/>
<path d="M155.011 123.768C162.68 123.768 168.898 117.536 168.898 109.848C168.898 102.16 162.68 95.9277 155.011 95.9277C147.341 95.9277 141.123 102.16 141.123 109.848C141.123 117.536 147.341 123.768 155.011 123.768Z" fill="#A0616A"/>
<path d="M173.311 254.535L180.243 254.535L183.541 236.514H173.31L173.311 254.535Z" fill="#A0616A"/>
<path d="M171.543 252.267L185.194 252.266H185.195C186.337 252.266 187.468 252.492 188.524 252.93C189.579 253.368 190.538 254.01 191.346 254.82C192.154 255.63 192.795 256.591 193.232 257.649C193.669 258.707 193.894 259.841 193.894 260.987V261.27L171.543 261.271L171.543 252.267Z" fill="#2F2E41"/>
<path d="M181.357 247.138C181.276 247.138 181.195 247.135 181.114 247.127L171.521 246.427C171.133 246.391 170.758 246.266 170.426 246.062C170.094 245.857 169.813 245.58 169.605 245.249C169.396 244.919 169.267 244.546 169.226 244.157C169.184 243.769 169.233 243.376 169.367 243.009L182.205 214.096C182.297 213.838 182.335 213.564 182.316 213.291C182.296 213.018 182.221 212.752 182.094 212.51C181.968 212.265 181.791 212.049 181.576 211.877C181.36 211.705 181.111 211.581 180.844 211.512C174.807 209.931 159.317 205.719 145.909 200.79C140.164 198.679 136.546 195.627 135.155 191.721C133.321 186.571 136.034 181.874 136.151 181.677L136.242 181.522L148.859 182.672L162.537 183.838L192.512 199.95C195.024 201.312 196.931 203.572 197.856 206.28C198.78 208.988 198.652 211.946 197.498 214.564L183.679 245.627C183.479 246.077 183.153 246.459 182.741 246.727C182.329 246.995 181.848 247.138 181.357 247.138Z" fill="#2F2E41"/>
<path d="M159.294 131.662L144.593 126.561C144.593 126.561 135.364 133.668 139.797 151.3C142.112 160.398 141.438 170.002 137.875 178.686C137.446 179.76 136.951 180.807 136.394 181.821C136.394 181.821 152.791 201.658 168.058 186.922L162.121 158.3C162.121 158.3 171.45 139.313 159.294 131.662Z" fill="#2F2E41"/>
<path d="M156.735 124.242C154.758 121.277 153.199 117.165 155.375 114.343C157.523 111.558 161.759 111.968 165.049 110.736C169.632 109.019 172.289 103.623 171.46 98.7909C170.631 93.9585 166.761 89.9526 162.151 88.3135C157.541 86.6744 152.342 87.2074 147.827 89.095C142.27 91.4185 137.502 95.9133 135.503 101.607C133.504 107.301 134.572 114.137 138.72 118.513C143.166 123.205 150.144 124.456 156.6 124.38" fill="#2F2E41"/>
<path d="M143.817 98.9461C141.326 100.978 137.526 100.076 134.853 98.2921C132.179 96.5085 130.01 93.9687 127.117 92.5702C122.018 90.1048 115.852 91.7437 110.889 94.4746C105.925 97.2055 101.526 100.978 96.283 103.121C91.0404 105.264 84.3504 105.37 80.3806 101.324C79.4037 104.161 79.3239 107.231 80.152 110.115C80.9801 113 82.6758 115.558 85.0077 117.44C87.3397 119.323 90.1944 120.438 93.1822 120.635C96.17 120.831 99.1456 120.099 101.703 118.537C107.447 115.03 110.62 107.676 117.063 105.74C120.628 104.669 124.457 105.532 128.06 106.466C131.663 107.401 135.421 108.41 139.057 107.615C142.693 106.819 146.095 103.544 145.632 99.8417L143.817 98.9461Z" fill="#2F2E41"/>
<path d="M189.024 230.111C187.554 220.537 187.554 210.794 189.024 201.22C189.118 200.65 189.41 200.132 189.848 199.758C190.287 199.383 190.844 199.177 191.42 199.176H213.965C214.33 199.175 214.691 199.258 215.02 199.417C215.348 199.577 215.637 199.81 215.862 200.098C216.092 200.39 216.253 200.731 216.332 201.095C216.411 201.459 216.407 201.836 216.318 202.198C214.21 211.052 214.21 220.279 216.318 229.133C216.407 229.495 216.411 229.872 216.332 230.236C216.253 230.6 216.092 230.941 215.862 231.233C215.637 231.521 215.348 231.754 215.02 231.914C214.691 232.073 214.33 232.156 213.965 232.155H191.42C190.844 232.153 190.287 231.947 189.848 231.573C189.41 231.199 189.118 230.681 189.024 230.111Z" fill="#FF6584"/>
<path d="M207.027 213.162H195.196C194.747 213.161 194.315 212.982 193.997 212.663C193.679 212.345 193.501 211.912 193.5 211.462V210.797C193.501 210.347 193.679 209.914 193.997 209.596C194.315 209.277 194.747 209.098 195.196 209.097H207.027C207.477 209.098 207.908 209.277 208.226 209.596C208.544 209.914 208.723 210.347 208.723 210.797V211.462C208.723 211.912 208.544 212.345 208.226 212.663C207.908 212.982 207.477 213.161 207.027 213.162Z" fill="white"/>
<path d="M207.027 220.159H195.196C194.747 220.158 194.315 219.979 193.997 219.66C193.679 219.341 193.501 218.909 193.5 218.459V217.794C193.501 217.343 193.679 216.911 193.997 216.592C194.315 216.274 194.747 216.094 195.196 216.094H207.027C207.477 216.094 207.908 216.274 208.226 216.592C208.544 216.911 208.723 217.343 208.723 217.794V218.459C208.723 218.909 208.544 219.341 208.226 219.66C207.908 219.979 207.477 220.158 207.027 220.159Z" fill="white"/>
<path d="M194.953 201.885C195.289 201.061 195.44 200.173 195.397 199.284C195.353 198.395 195.116 197.526 194.702 196.739C194.287 195.952 193.705 195.265 192.997 194.728C192.29 194.19 191.473 193.815 190.604 193.628L162.257 146.006L152.222 154.616L183.242 198.72C183.026 200.203 183.359 201.714 184.18 202.966C185.001 204.219 186.252 205.126 187.695 205.516C189.139 205.906 190.675 205.752 192.012 205.083C193.35 204.413 194.396 203.276 194.953 201.885L194.953 201.885Z" fill="#A0616A"/>
<path d="M167.889 153.727L155.931 160.541C155.59 160.734 155.212 160.853 154.823 160.887C154.433 160.921 154.04 160.871 153.671 160.739C153.303 160.608 152.967 160.398 152.686 160.124C152.405 159.851 152.187 159.52 152.045 159.154L147.089 146.337C146.109 144.586 145.862 142.518 146.402 140.585C146.942 138.652 148.224 137.013 149.967 136.026C151.711 135.039 153.774 134.786 155.704 135.321C157.634 135.857 159.273 137.137 160.262 138.882L168.688 149.671C168.93 149.98 169.101 150.338 169.192 150.719C169.283 151.101 169.291 151.498 169.215 151.883C169.139 152.267 168.982 152.631 168.753 152.95C168.524 153.268 168.229 153.533 167.889 153.727Z" fill="#2F2E41"/>
<path d="M295.132 170.455H65.5704C64.5957 170.455 63.6609 170.843 62.9716 171.534C62.2824 172.224 61.8952 173.162 61.8952 174.139C61.8952 175.116 62.2824 176.053 62.9716 176.744C63.6609 177.434 64.5957 177.823 65.5704 177.823H72.0728V258.02C72.0728 258.997 72.46 259.934 73.1492 260.625C73.8385 261.316 74.7733 261.704 75.748 261.704C76.7227 261.704 77.6576 261.316 78.3468 260.625C79.0361 259.934 79.4233 258.997 79.4233 258.02V184.901L120.626 259.759C121.115 260.603 121.917 261.218 122.858 261.47C123.798 261.721 124.8 261.589 125.643 261.101C126.486 260.613 127.102 259.81 127.354 258.867C127.607 257.925 127.477 256.921 126.992 256.075L83.9204 177.823H280.714V177.87L237.669 256.075C237.181 256.921 237.049 257.926 237.301 258.87C237.554 259.814 238.17 260.619 239.014 261.107C239.858 261.596 240.861 261.728 241.802 261.475C242.744 261.222 243.547 260.605 244.034 259.759L280.714 193.119V258.02C280.714 258.997 281.101 259.934 281.79 260.625C282.479 261.316 283.414 261.704 284.389 261.704C285.364 261.704 286.298 261.316 286.988 260.625C287.677 259.934 288.064 258.997 288.064 258.02V179.765L289.133 177.823H295.132C296.107 177.823 297.041 177.434 297.731 176.744C298.42 176.053 298.807 175.116 298.807 174.139C298.807 173.162 298.42 172.224 297.731 171.534C297.041 170.843 296.107 170.455 295.132 170.455Z" fill="#3F3D56"/>
<path d="M200.141 168.188H155.473C154.38 168.188 153.494 169.076 153.494 170.171C153.494 171.267 154.38 172.155 155.473 172.155H200.141C201.234 172.155 202.12 171.267 202.12 170.171C202.12 169.076 201.234 168.188 200.141 168.188Z" fill="#CCCCCC"/>
<path d="M230.108 172.155H179.786C178.811 172.154 177.877 171.766 177.188 171.075C176.499 170.384 176.112 169.448 176.11 168.471V140.7C176.112 139.723 176.499 138.786 177.188 138.096C177.877 137.405 178.811 137.017 179.786 137.016H230.108C231.083 137.017 232.017 137.405 232.706 138.096C233.395 138.786 233.782 139.723 233.783 140.7V168.471C233.782 169.448 233.395 170.384 232.706 171.075C232.017 171.766 231.083 172.154 230.108 172.155Z" fill="#CCCCCC"/>
<path d="M204.947 157.986C206.821 157.986 208.339 156.463 208.339 154.585C208.339 152.707 206.821 151.185 204.947 151.185C203.073 151.185 201.554 152.707 201.554 154.585C201.554 156.463 203.073 157.986 204.947 157.986Z" fill="white"/>
<path d="M268.512 103.73V4.26289C268.513 3.13269 268.962 2.04916 269.759 1.24999C270.556 0.45082 271.637 0.00128556 272.765 0H351.205C352.333 0.00128556 353.414 0.45082 354.211 1.24999C355.008 2.04916 355.457 3.13269 355.458 4.26289V103.73C355.457 104.861 355.008 105.944 354.211 106.743C353.414 107.542 352.333 107.992 351.205 107.993H272.765C271.637 107.992 270.556 107.542 269.759 106.743C268.962 105.944 268.513 104.861 268.512 103.73ZM272.765 0.947312C271.888 0.948299 271.047 1.29793 270.427 1.91951C269.807 2.54109 269.458 3.38384 269.457 4.26289V103.73C269.458 104.609 269.807 105.452 270.427 106.074C271.047 106.695 271.888 107.045 272.765 107.046H351.205C352.082 107.045 352.923 106.695 353.543 106.074C354.163 105.452 354.512 104.609 354.513 103.73V4.26289C354.512 3.38384 354.163 2.54109 353.543 1.91951C352.923 1.29793 352.082 0.948299 351.205 0.947312H272.765Z" fill="white"/>
<path d="M316.384 45.6803V25.2564C316.384 24.6913 316.609 24.1496 317.007 23.75C317.406 23.3504 317.946 23.1256 318.51 23.125H335.776C336.34 23.1256 336.881 23.3504 337.279 23.75C337.678 24.1496 337.902 24.6913 337.903 25.2564V45.6803C337.902 46.2454 337.678 46.7871 337.279 47.1867C336.881 47.5863 336.34 47.8111 335.776 47.8117H318.51C317.946 47.8111 317.406 47.5863 317.007 47.1867C316.609 46.7871 316.384 46.2454 316.384 45.6803Z" fill="#FF6584"/>
<path d="M282.834 55.1529V34.7291C282.835 34.164 283.059 33.6222 283.458 33.2226C283.856 32.8231 284.397 32.5983 284.96 32.5977H302.227C302.79 32.5983 303.331 32.8231 303.73 33.2226C304.128 33.6222 304.352 34.164 304.353 34.7291V55.1529C304.352 55.718 304.128 56.2598 303.73 56.6594C303.331 57.059 302.79 57.2837 302.227 57.2844H284.96C284.397 57.2837 283.856 57.059 283.458 56.6594C283.059 56.2598 282.835 55.718 282.834 55.1529Z" fill="white"/>
<path d="M309.768 84.046V63.6222C309.769 63.0571 309.993 62.5153 310.392 62.1157C310.79 61.7161 311.331 61.4913 311.895 61.4907H329.161C329.725 61.4913 330.265 61.7161 330.664 62.1157C331.063 62.5153 331.287 63.0571 331.287 63.6222V84.046C331.287 84.6111 331.063 85.1529 330.664 85.5524C330.265 85.952 329.725 86.1768 329.161 86.1774H311.895C311.331 86.1768 310.79 85.952 310.392 85.5525C309.993 85.1529 309.769 84.6111 309.768 84.046Z" fill="#6C63FF"/>
<path d="M441.448 10.3646C443.468 10.3646 445.105 8.72364 445.105 6.69939C445.105 4.67515 443.468 3.03418 441.448 3.03418C439.429 3.03418 437.792 4.67515 437.792 6.69939C437.792 8.72364 439.429 10.3646 441.448 10.3646Z" fill="#2F2E41"/>
<path d="M441.448 24.972C443.468 24.972 445.105 23.3311 445.105 21.3068C445.105 19.2826 443.468 17.6416 441.448 17.6416C439.429 17.6416 437.792 19.2826 437.792 21.3068C437.792 23.3311 439.429 24.972 441.448 24.972Z" fill="#2F2E41"/>
<path d="M441.448 39.5795C443.468 39.5795 445.105 37.9385 445.105 35.9142C445.105 33.89 443.468 32.249 441.448 32.249C439.429 32.249 437.792 33.89 437.792 35.9142C437.792 37.9385 439.429 39.5795 441.448 39.5795Z" fill="#2F2E41"/>
<path d="M441.448 54.1869C443.468 54.1869 445.105 52.5459 445.105 50.5217C445.105 48.4974 443.468 46.8564 441.448 46.8564C439.429 46.8564 437.792 48.4974 437.792 50.5217C437.792 52.5459 439.429 54.1869 441.448 54.1869Z" fill="#2F2E41"/>
<path d="M426.182 10.3646C428.201 10.3646 429.838 8.72364 429.838 6.69939C429.838 4.67515 428.201 3.03418 426.182 3.03418C424.162 3.03418 422.525 4.67515 422.525 6.69939C422.525 8.72364 424.162 10.3646 426.182 10.3646Z" fill="#2F2E41"/>
<path d="M426.182 24.972C428.201 24.972 429.838 23.3311 429.838 21.3068C429.838 19.2826 428.201 17.6416 426.182 17.6416C424.162 17.6416 422.525 19.2826 422.525 21.3068C422.525 23.3311 424.162 24.972 426.182 24.972Z" fill="#2F2E41"/>
<path d="M426.182 39.5795C428.201 39.5795 429.838 37.9385 429.838 35.9142C429.838 33.89 428.201 32.249 426.182 32.249C424.162 32.249 422.525 33.89 422.525 35.9142C422.525 37.9385 424.162 39.5795 426.182 39.5795Z" fill="#2F2E41"/>
<path d="M426.182 54.1869C428.201 54.1869 429.838 52.5459 429.838 50.5217C429.838 48.4974 428.201 46.8564 426.182 46.8564C424.162 46.8564 422.525 48.4974 422.525 50.5217C422.525 52.5459 424.162 54.1869 426.182 54.1869Z" fill="#2F2E41"/>
<path d="M410.915 10.3646C412.935 10.3646 414.572 8.72364 414.572 6.69939C414.572 4.67515 412.935 3.03418 410.915 3.03418C408.896 3.03418 407.259 4.67515 407.259 6.69939C407.259 8.72364 408.896 10.3646 410.915 10.3646Z" fill="#2F2E41"/>
<path d="M410.915 24.972C412.935 24.972 414.572 23.3311 414.572 21.3068C414.572 19.2826 412.935 17.6416 410.915 17.6416C408.896 17.6416 407.259 19.2826 407.259 21.3068C407.259 23.3311 408.896 24.972 410.915 24.972Z" fill="#2F2E41"/>
<path d="M410.915 39.5795C412.935 39.5795 414.572 37.9385 414.572 35.9142C414.572 33.89 412.935 32.249 410.915 32.249C408.896 32.249 407.259 33.89 407.259 35.9142C407.259 37.9385 408.896 39.5795 410.915 39.5795Z" fill="#2F2E41"/>
<path d="M410.915 54.1869C412.935 54.1869 414.572 52.5459 414.572 50.5217C414.572 48.4974 412.935 46.8564 410.915 46.8564C408.896 46.8564 407.259 48.4974 407.259 50.5217C407.259 52.5459 408.896 54.1869 410.915 54.1869Z" fill="#2F2E41"/>
<path d="M395.649 10.3646C397.668 10.3646 399.306 8.72364 399.306 6.69939C399.306 4.67515 397.668 3.03418 395.649 3.03418C393.63 3.03418 391.993 4.67515 391.993 6.69939C391.993 8.72364 393.63 10.3646 395.649 10.3646Z" fill="#2F2E41"/>
<path d="M395.649 24.972C397.668 24.972 399.306 23.3311 399.306 21.3068C399.306 19.2826 397.668 17.6416 395.649 17.6416C393.63 17.6416 391.993 19.2826 391.993 21.3068C391.993 23.3311 393.63 24.972 395.649 24.972Z" fill="#2F2E41"/>
<path d="M395.649 39.5795C397.668 39.5795 399.306 37.9385 399.306 35.9142C399.306 33.89 397.668 32.249 395.649 32.249C393.63 32.249 391.993 33.89 391.993 35.9142C391.993 37.9385 393.63 39.5795 395.649 39.5795Z" fill="#2F2E41"/>
<path d="M395.649 54.1869C397.668 54.1869 399.306 52.5459 399.306 50.5217C399.306 48.4974 397.668 46.8564 395.649 46.8564C393.63 46.8564 391.993 48.4974 391.993 50.5217C391.993 52.5459 393.63 54.1869 395.649 54.1869Z" fill="#2F2E41"/>
<path d="M380.383 10.3646C382.402 10.3646 384.039 8.72364 384.039 6.69939C384.039 4.67515 382.402 3.03418 380.383 3.03418C378.363 3.03418 376.726 4.67515 376.726 6.69939C376.726 8.72364 378.363 10.3646 380.383 10.3646Z" fill="#2F2E41"/>
<path d="M380.383 24.972C382.402 24.972 384.039 23.3311 384.039 21.3068C384.039 19.2826 382.402 17.6416 380.383 17.6416C378.363 17.6416 376.726 19.2826 376.726 21.3068C376.726 23.3311 378.363 24.972 380.383 24.972Z" fill="#2F2E41"/>
<path d="M380.383 39.5795C382.402 39.5795 384.039 37.9385 384.039 35.9142C384.039 33.89 382.402 32.249 380.383 32.249C378.363 32.249 376.726 33.89 376.726 35.9142C376.726 37.9385 378.363 39.5795 380.383 39.5795Z" fill="#2F2E41"/>
<path d="M380.383 54.1869C382.402 54.1869 384.039 52.5459 384.039 50.5217C384.039 48.4974 382.402 46.8564 380.383 46.8564C378.363 46.8564 376.726 48.4974 376.726 50.5217C376.726 52.5459 378.363 54.1869 380.383 54.1869Z" fill="#2F2E41"/>
<path d="M365.116 10.3646C367.136 10.3646 368.773 8.72364 368.773 6.69939C368.773 4.67515 367.136 3.03418 365.116 3.03418C363.097 3.03418 361.46 4.67515 361.46 6.69939C361.46 8.72364 363.097 10.3646 365.116 10.3646Z" fill="#2F2E41"/>
<path d="M365.116 24.972C367.136 24.972 368.773 23.3311 368.773 21.3068C368.773 19.2826 367.136 17.6416 365.116 17.6416C363.097 17.6416 361.46 19.2826 361.46 21.3068C361.46 23.3311 363.097 24.972 365.116 24.972Z" fill="#2F2E41"/>
<path d="M365.116 39.5795C367.136 39.5795 368.773 37.9385 368.773 35.9142C368.773 33.89 367.136 32.249 365.116 32.249C363.097 32.249 361.46 33.89 361.46 35.9142C361.46 37.9385 363.097 39.5795 365.116 39.5795Z" fill="#2F2E41"/>
<path d="M365.116 54.1869C367.136 54.1869 368.773 52.5459 368.773 50.5217C368.773 48.4974 367.136 46.8564 365.116 46.8564C363.097 46.8564 361.46 48.4974 361.46 50.5217C361.46 52.5459 363.097 54.1869 365.116 54.1869Z" fill="#2F2E41"/>
<path d="M379.848 136.734C379.548 135.908 379.425 135.029 379.488 134.152C379.551 133.276 379.798 132.423 380.212 131.649C380.627 130.875 381.2 130.198 381.894 129.661C382.588 129.125 383.387 128.741 384.24 128.536C384.51 128.473 384.784 128.428 385.06 128.402L398.801 104.259L395.332 98.2836L403.969 91.6045L410.577 100.804C411.365 101.91 411.776 103.241 411.749 104.6C411.723 105.959 411.26 107.273 410.43 108.347L391.564 132.556C391.633 132.748 391.692 132.944 391.74 133.142C391.945 133.997 391.967 134.885 391.805 135.748C391.643 136.612 391.302 137.431 390.802 138.153C390.302 138.875 389.656 139.483 388.906 139.937C388.155 140.391 387.318 140.681 386.448 140.788C386.195 140.82 385.941 140.836 385.686 140.836C384.412 140.832 383.169 140.436 382.125 139.703C381.081 138.97 380.286 137.933 379.848 136.734Z" fill="#FFB8B8"/>
<path d="M353.038 255.548L346.106 255.547L342.809 228.746L353.039 228.747L353.038 255.548Z" fill="#FFB8B8"/>
<path d="M341.155 253.562H354.524V261.999H332.738C332.738 260.891 332.955 259.794 333.378 258.771C333.801 257.747 334.421 256.817 335.203 256.033C335.985 255.25 336.912 254.628 337.934 254.204C338.955 253.78 340.049 253.562 341.155 253.562Z" fill="#2F2E41"/>
<path d="M410.146 255.548L403.214 255.547L399.916 228.746L410.147 228.747L410.146 255.548Z" fill="#FFB8B8"/>
<path d="M398.262 253.562H411.631V261.999H389.845C389.845 260.891 390.063 259.794 390.486 258.771C390.909 257.747 391.529 256.817 392.31 256.033C393.092 255.25 394.02 254.628 395.041 254.204C396.062 253.78 397.157 253.562 398.262 253.562Z" fill="#2F2E41"/>
<path d="M405.891 92.9096L390.328 98.8376L386.529 88.258C386.024 86.8532 386.031 85.3148 386.549 83.9147C387.066 82.5146 388.061 81.343 389.357 80.6069C390.668 79.8623 392.201 79.6121 393.68 79.9015C395.159 80.1909 396.486 81.0008 397.421 82.1851L405.891 92.9096Z" fill="#FF6584"/>
<path d="M353.637 233.841L340.584 230.857C339.89 230.697 339.282 230.28 338.882 229.689C338.482 229.099 338.32 228.378 338.429 227.672C343.666 194.398 348.705 174.912 361.69 150.166C361.872 149.704 363.899 140.339 365.223 134.135C365.207 133.451 365.441 132.785 365.879 132.261C366.318 131.738 366.931 131.391 367.605 131.287L391.943 127.533C392.311 127.405 392.698 127.347 393.086 127.36L393.33 127.407L393.327 127.647C393.324 127.894 393.077 127.932 392.985 127.947L392.661 127.997C393.03 128.169 393.369 128.4 393.665 128.68C404.329 141.537 409.874 183.679 416.917 230.236C416.956 230.614 416.91 230.996 416.782 231.354C416.655 231.711 416.449 232.036 416.18 232.303C415.925 232.582 415.616 232.807 415.272 232.963C414.928 233.118 414.557 233.203 414.179 233.211L398.629 233.591C397.946 233.606 397.281 233.372 396.757 232.932C396.233 232.492 395.887 231.877 395.782 231.2L385.309 170.528C385.236 170.054 385.015 169.616 384.677 169.276C384.339 168.937 383.902 168.715 383.43 168.642C382.957 168.569 382.473 168.649 382.049 168.87C381.625 169.092 381.282 169.443 381.071 169.873C372.621 187.122 364.741 202.04 356.98 231.801C356.826 232.405 356.477 232.94 355.986 233.322C355.495 233.705 354.892 233.912 354.271 233.913C354.057 233.913 353.845 233.889 353.637 233.841Z" fill="#2F2E41"/>
<path d="M366.306 134.828C365.979 134.595 365.704 134.296 365.501 133.949C365.298 133.602 365.171 133.216 365.128 132.816C363.135 114.164 364.523 99.5676 369.372 88.1921C370.226 86.2301 371.513 84.4877 373.135 83.0957C374.758 81.7038 376.674 80.6985 378.739 80.1555L391.32 79.519L391.385 79.5506C394.224 80.9444 396.539 83.2181 397.987 86.0346C399.435 88.8511 399.939 92.0604 399.425 95.1868C395.378 105.878 391.99 117.009 394.574 125.988C394.683 126.364 394.714 126.757 394.667 127.145C394.62 127.533 394.496 127.908 394.301 128.246C394.112 128.573 393.858 128.858 393.555 129.083C393.252 129.308 392.906 129.469 392.539 129.555L368.577 135.268C368.189 135.361 367.786 135.369 367.394 135.293C367.003 135.217 366.632 135.059 366.306 134.828Z" fill="#FF6584"/>
<path d="M360.891 108.061L336.762 88.9799C336.57 89.0477 336.374 89.1055 336.176 89.1531C335.324 89.3528 334.44 89.3707 333.581 89.2055C332.722 89.0403 331.908 88.6959 331.19 88.1945C330.468 87.6928 329.861 87.0422 329.41 86.2863C328.959 85.5304 328.674 84.6866 328.574 83.8115C328.412 82.4124 328.727 80.9996 329.467 79.8022C330.207 78.6049 331.329 77.6933 332.65 77.2153C333.475 76.9187 334.353 76.8002 335.227 76.8674C336.101 76.9347 336.951 77.1862 337.721 77.6056C338.491 78.025 339.164 78.6027 339.696 79.3009C340.228 79.9992 340.607 80.8022 340.807 81.6573C340.87 81.9283 340.913 82.2033 340.937 82.4803L364.957 96.3703L370.934 92.9207L377.556 101.61L368.275 108.241C367.188 109.011 365.883 109.409 364.553 109.377C363.223 109.344 361.939 108.883 360.891 108.061H360.891Z" fill="#FFB8B8"/>
<path d="M380.5 104.316L366.733 94.9323L373.203 85.7468C374.062 84.5271 375.324 83.6511 376.765 83.2735C378.206 82.896 379.734 83.0413 381.079 83.6837C382.439 84.3336 383.522 85.4496 384.133 86.8302C384.745 88.2107 384.843 89.7648 384.411 91.2119L380.5 104.316Z" fill="#FF6584"/>
<path d="M387.121 74.809C394.791 74.809 401.009 68.5766 401.009 60.8886C401.009 53.2006 394.791 46.9683 387.121 46.9683C379.452 46.9683 373.234 53.2006 373.234 60.8886C373.234 68.5766 379.452 74.809 387.121 74.809Z" fill="#FFB8B8"/>
<path d="M382.03 58.8151C378.46 61.2638 373.774 63.781 370.128 61.1733C367.735 59.461 366.98 56.2903 367.951 53.5079C369.697 48.5041 374.493 46.3012 379.079 44.6127C385.041 42.4176 391.533 40.6713 397.688 42.2433C403.842 43.8153 409.282 49.7886 408.171 56.0571C407.277 61.098 402.534 65.2925 403.207 70.3677C403.885 75.4754 409.615 78.164 414.675 79.0769C419.734 79.9898 425.395 80.2831 429.031 83.9257C433.669 88.5725 432.511 96.8782 428.147 101.784C423.782 106.69 417.196 108.914 410.814 110.426C402.359 112.429 393.213 113.482 385.183 110.158C377.152 106.833 370.902 97.8846 373.229 89.4934C374.211 85.949 376.526 82.9534 378.763 80.0372C381.001 77.1209 383.266 74.0714 384.119 70.4935C384.831 67.5119 384.304 64.0501 382.332 61.8135C381.973 61.4221 381.747 60.9267 381.687 60.3986C381.626 59.8704 381.734 59.3367 381.996 58.874L382.03 58.8151Z" fill="#2F2E41"/>
</svg>
