<svg width="170" height="153" viewBox="0 0 170 153" fill="none" xmlns="http://www.w3.org/2000/svg">
<g clip-path="url(#clip0)">
<path d="M42.1203 38.7529C39.1972 30.037 30.1702 25.1927 24.2318 27.1743C18.2933 29.156 14.0057 38.4431 16.9288 47.1591C19.6345 55.2268 27.8333 59.8843 33.4734 59.0531C33.4327 59.1237 33.4059 59.2014 33.3945 59.282L33.222 60.7168C33.2089 60.8261 33.224 60.937 33.2659 61.0389C33.3078 61.1409 33.3752 61.2304 33.4615 61.2991C33.5479 61.3677 33.6504 61.4132 33.7594 61.4312C33.8683 61.4492 33.9801 61.4392 34.084 61.402L36.9893 60.3629C37.0933 60.3257 37.186 60.2626 37.2587 60.1797C37.3313 60.0967 37.3815 59.9966 37.4044 59.8888C37.4274 59.7811 37.4224 59.6692 37.3898 59.564C37.3572 59.4587 37.2982 59.3635 37.2184 59.2874L36.1711 58.2888C36.1339 58.2548 36.0928 58.2254 36.0486 58.201C41.0791 55.4968 44.8319 46.8382 42.1203 38.7529Z" fill="#F7EDFF"/>
<path d="M31.5382 32.3405C33.9657 33.5902 35.8196 35.7218 36.7172 38.2954C37.6147 40.869 37.4874 43.6882 36.3616 46.1709C36.1102 46.7417 37.0347 47.0419 37.2844 46.4748C38.4665 43.7885 38.5867 40.7557 37.621 37.9847C36.6553 35.2137 34.675 32.9093 32.0773 31.5336C31.529 31.2438 30.9858 32.0485 31.5382 32.3405Z" fill="white"/>
<path d="M160.467 26.0478C157.544 17.3319 148.517 12.4877 142.579 14.4693C136.64 16.4509 132.353 25.738 135.276 34.454C137.982 42.5217 146.18 47.1792 151.821 46.3481C151.78 46.4186 151.753 46.4963 151.742 46.5769L151.569 48.0117C151.556 48.121 151.571 48.2319 151.613 48.3339C151.655 48.4358 151.722 48.5253 151.809 48.594C151.895 48.6626 151.998 48.7081 152.107 48.7261C152.215 48.7442 152.327 48.7341 152.431 48.6969L155.337 47.6578C155.44 47.6206 155.533 47.5576 155.606 47.4746C155.678 47.3916 155.729 47.2915 155.752 47.1837C155.775 47.076 155.77 46.9642 155.737 46.8589C155.704 46.7536 155.645 46.6584 155.566 46.5823L154.518 45.5837C154.481 45.5497 154.44 45.5203 154.396 45.4959C159.426 42.7918 163.179 34.1331 160.467 26.0478Z" fill="#F7EDFF"/>
<path d="M149.885 19.6354C152.313 20.8851 154.167 23.0167 155.064 25.5903C155.962 28.164 155.835 30.9831 154.709 33.4658C154.457 34.0366 155.382 34.3369 155.632 33.7697C156.814 31.0834 156.934 28.0507 155.968 25.2796C155.002 22.5086 153.022 20.2042 150.424 18.8286C149.876 18.5388 149.333 19.3434 149.885 19.6354Z" fill="white"/>
<path d="M91.7412 12.0195C88.818 3.30355 79.7911 -1.54066 73.8526 0.440951C67.9142 2.42256 63.6265 11.7097 66.5497 20.4257C69.2554 28.4934 77.4541 33.1509 83.0942 32.3197C83.0536 32.3903 83.0268 32.468 83.0154 32.5485L82.8429 33.9833C82.8298 34.0927 82.8449 34.2036 82.8868 34.3055C82.9287 34.4075 82.996 34.497 83.0824 34.5656C83.1688 34.6343 83.2713 34.6798 83.3802 34.6978C83.4892 34.7158 83.6009 34.7058 83.7049 34.6686L86.6102 33.6295C86.7141 33.5923 86.8069 33.5292 86.8795 33.4463C86.9522 33.3633 87.0023 33.2632 87.0253 33.1554C87.0483 33.0477 87.0432 32.9358 87.0107 32.8306C86.9781 32.7253 86.9191 32.6301 86.8393 32.554L85.792 31.5554C85.7548 31.5214 85.7136 31.4919 85.6695 31.4676C90.6999 28.7634 94.4528 20.1048 91.7412 12.0195Z" fill="#F7EDFF"/>
<path d="M81.159 5.60708C83.5866 6.85677 85.4405 8.98842 86.338 11.562C87.2356 14.1356 87.1083 16.9548 85.9824 19.4375C85.731 20.0083 86.6555 20.3085 86.9053 19.7414C88.0874 17.0551 88.2076 14.0223 87.2419 11.2513C86.2762 8.48029 84.2959 6.17589 81.6982 4.80025C81.1499 4.51043 80.6067 5.31512 81.159 5.60708Z" fill="white"/>
<path d="M77.0804 53.9596C77.465 53.9596 77.7768 53.6486 77.7768 53.265C77.7768 52.8813 77.465 52.5703 77.0804 52.5703C76.6958 52.5703 76.384 52.8813 76.384 53.265C76.384 53.6486 76.6958 53.9596 77.0804 53.9596Z" fill="#CCCCCC"/>
<path d="M75.5957 81.8246C76.3555 81.8246 76.9714 81.2102 76.9714 80.4523C76.9714 79.6945 76.3555 79.0801 75.5957 79.0801C74.8359 79.0801 74.22 79.6945 74.22 80.4523C74.22 81.2102 74.8359 81.8246 75.5957 81.8246Z" fill="#CCCCCC"/>
<path d="M52.5642 76.541C53.0033 76.541 53.3592 76.186 53.3592 75.748C53.3592 75.3101 53.0033 74.9551 52.5642 74.9551C52.1252 74.9551 51.7693 75.3101 51.7693 75.748C51.7693 76.186 52.1252 76.541 52.5642 76.541Z" fill="#CCCCCC"/>
<path d="M64.6414 63.5573C65.1169 63.5573 65.5023 63.1728 65.5023 62.6986C65.5023 62.2243 65.1169 61.8398 64.6414 61.8398C64.1659 61.8398 63.7805 62.2243 63.7805 62.6986C63.7805 63.1728 64.1659 63.5573 64.6414 63.5573Z" fill="#CCCCCC"/>
<path d="M107.004 113.834C107.388 113.834 107.7 113.523 107.7 113.139C107.7 112.755 107.388 112.444 107.004 112.444C106.619 112.444 106.307 112.755 106.307 113.139C106.307 113.523 106.619 113.834 107.004 113.834Z" fill="#CCCCCC"/>
<path d="M84.1968 99.5492C84.9566 99.5492 85.5725 98.9348 85.5725 98.177C85.5725 97.4191 84.9566 96.8047 84.1968 96.8047C83.437 96.8047 82.821 97.4191 82.821 98.177C82.821 98.9348 83.437 99.5492 84.1968 99.5492Z" fill="#CCCCCC"/>
<path d="M99.8623 81.4853C100.301 81.4853 100.657 81.1303 100.657 80.6923C100.657 80.2544 100.301 79.8994 99.8623 79.8994C99.4233 79.8994 99.0674 80.2544 99.0674 80.6923C99.0674 81.1303 99.4233 81.4853 99.8623 81.4853Z" fill="#CCCCCC"/>
<path d="M105.091 98.528C105.566 98.528 105.951 98.1435 105.951 97.6693C105.951 97.195 105.566 96.8105 105.091 96.8105C104.615 96.8105 104.23 97.195 104.23 97.6693C104.23 98.1435 104.615 98.528 105.091 98.528Z" fill="#CCCCCC"/>
<path d="M151.46 142.756C152.219 142.121 151.193 139.65 149.167 137.237C147.141 134.823 144.883 133.381 144.123 134.015C143.364 134.65 144.39 137.121 146.416 139.534C148.442 141.948 150.7 143.39 151.46 142.756Z" fill="#2C3351"/>
<path d="M135.636 147.805C141.948 147.805 147.064 142.702 147.064 136.406C147.064 130.11 141.948 125.007 135.636 125.007C129.325 125.007 124.208 130.11 124.208 136.406C124.208 142.702 129.325 147.805 135.636 147.805Z" fill="#2C3351"/>
<path d="M140.474 145.353H137.002V151.557H140.474V145.353Z" fill="#2C3351"/>
<path d="M133.53 145.353H130.058V151.557H133.53V145.353Z" fill="#2C3351"/>
<path d="M137.581 152.711C139.179 152.711 140.474 152.227 140.474 151.629C140.474 151.031 139.179 150.547 137.581 150.547C135.983 150.547 134.688 151.031 134.688 151.629C134.688 152.227 135.983 152.711 137.581 152.711Z" fill="#2C3351"/>
<path d="M130.637 152.567C132.234 152.567 133.53 152.082 133.53 151.485C133.53 150.887 132.234 150.402 130.637 150.402C129.039 150.402 127.743 150.887 127.743 151.485C127.743 152.082 129.039 152.567 130.637 152.567Z" fill="#2C3351"/>
<path d="M132.048 122.077C133.069 117.978 137.573 115.565 142.109 116.689C146.645 117.812 149.495 122.046 148.474 126.145C147.454 130.244 144.068 130.258 139.532 129.134C134.996 128.011 131.028 126.176 132.048 122.077Z" fill="#E8D6FB"/>
<path d="M127.928 133.559C128.352 132.666 126.385 130.849 123.534 129.5C120.682 128.151 118.027 127.781 117.602 128.674C117.178 129.567 119.145 131.385 121.996 132.733C124.848 134.082 127.503 134.452 127.928 133.559Z" fill="#2C3351"/>
<path d="M133.928 137.801C136.032 137.801 137.738 136.1 137.738 134.001C137.738 131.902 136.032 130.2 133.928 130.2C131.824 130.2 130.118 131.902 130.118 134.001C130.118 136.1 131.824 137.801 133.928 137.801Z" fill="white"/>
<path d="M132.362 133.905C133.064 133.905 133.632 133.338 133.632 132.638C133.632 131.938 133.064 131.371 132.362 131.371C131.661 131.371 131.092 131.938 131.092 132.638C131.092 133.338 131.661 133.905 132.362 133.905Z" fill="#2C3351"/>
<path d="M136.318 141.919C136.378 142.246 136.372 142.582 136.302 142.907C136.232 143.232 136.098 143.541 135.908 143.814C135.718 144.088 135.476 144.321 135.196 144.502C134.915 144.682 134.602 144.806 134.274 144.865C133.946 144.925 133.609 144.919 133.283 144.849C132.957 144.779 132.648 144.645 132.374 144.456C132.099 144.267 131.865 144.025 131.684 143.746C131.504 143.466 131.38 143.154 131.32 142.826L131.319 142.821C131.069 141.444 132.137 140.957 133.517 140.708C134.897 140.459 136.068 140.542 136.318 141.919Z" fill="white"/>
<path d="M41.6818 128.437C42.8085 125.497 42.9716 122.827 42.0462 122.474C41.1208 122.121 39.4573 124.219 38.3306 127.159C37.2039 130.1 37.0407 132.769 37.9661 133.122C38.8915 133.475 40.5551 131.377 41.6818 128.437Z" fill="#2F2E41"/>
<path d="M29.4429 147.805C35.7545 147.805 40.871 142.702 40.871 136.406C40.871 130.11 35.7545 125.007 29.4429 125.007C23.1314 125.007 18.0149 130.11 18.0149 136.406C18.0149 142.702 23.1314 147.805 29.4429 147.805Z" fill="#2C3351"/>
<path d="M27.7072 145.353H24.2354V151.557H27.7072V145.353Z" fill="#2C3351"/>
<path d="M34.6508 145.353H31.179V151.557H34.6508V145.353Z" fill="#2C3351"/>
<path d="M27.1285 152.711C28.7264 152.711 30.0217 152.227 30.0217 151.629C30.0217 151.031 28.7264 150.547 27.1285 150.547C25.5307 150.547 24.2354 151.031 24.2354 151.629C24.2354 152.227 25.5307 152.711 27.1285 152.711Z" fill="#2C3351"/>
<path d="M34.0721 152.567C35.67 152.567 36.9653 152.082 36.9653 151.485C36.9653 150.887 35.67 150.402 34.0721 150.402C32.4743 150.402 31.179 150.887 31.179 151.485C31.179 152.082 32.4743 152.567 34.0721 152.567Z" fill="#2C3351"/>
<path d="M29.7327 137.416C31.8898 137.416 33.6385 135.672 33.6385 133.52C33.6385 131.368 31.8898 129.624 29.7327 129.624C27.5756 129.624 25.8269 131.368 25.8269 133.52C25.8269 135.672 27.5756 137.416 29.7327 137.416Z" fill="white"/>
<path d="M29.7326 134.819C30.4516 134.819 31.0345 134.238 31.0345 133.52C31.0345 132.803 30.4516 132.222 29.7326 132.222C29.0136 132.222 28.4307 132.803 28.4307 133.52C28.4307 134.238 29.0136 134.819 29.7326 134.819Z" fill="#2C3351"/>
<path d="M18.3579 125.805C17.4352 121.683 20.3849 117.517 24.9462 116.502C29.5076 115.486 33.9534 118.004 34.8762 122.126C35.7989 126.248 32.7759 127.768 28.2146 128.784C23.6532 129.8 19.2807 129.927 18.3579 125.805Z" fill="#E8D6FB"/>
<path d="M21.7341 133.559C22.1587 132.666 20.1914 130.849 17.3401 129.5C14.4887 128.151 11.8331 127.781 11.4086 128.674C10.984 129.567 12.9513 131.385 15.8027 132.733C18.654 134.082 21.3096 134.452 21.7341 133.559Z" fill="#2C3351"/>
<path d="M23.8298 140.518C23.8298 141.634 26.7098 143.837 29.9055 143.837C33.1012 143.837 36.0975 140.696 36.0975 139.58C36.0975 138.464 33.1012 139.797 29.9055 139.797C26.7098 139.797 23.8298 139.402 23.8298 140.518Z" fill="white"/>
<path d="M84.0313 136.953C90.3428 136.953 95.4593 131.849 95.4593 125.554C95.4593 119.258 90.3428 114.154 84.0313 114.154C77.7198 114.154 72.6033 119.258 72.6033 125.554C72.6033 131.849 77.7198 136.953 84.0313 136.953Z" fill="#2C3351"/>
<path d="M82.2955 134.5H78.8237V140.705H82.2955V134.5Z" fill="#2C3351"/>
<path d="M89.2391 134.5H85.7673V140.705H89.2391V134.5Z" fill="#2C3351"/>
<path d="M81.7169 141.859C83.3148 141.859 84.6101 141.374 84.6101 140.777C84.6101 140.179 83.3148 139.694 81.7169 139.694C80.119 139.694 78.8237 140.179 78.8237 140.777C78.8237 141.374 80.119 141.859 81.7169 141.859Z" fill="#2C3351"/>
<path d="M88.6603 141.715C90.2581 141.715 91.5535 141.231 91.5535 140.633C91.5535 140.035 90.2581 139.551 88.6603 139.551C87.0624 139.551 85.7671 140.035 85.7671 140.633C85.7671 141.231 87.0624 141.715 88.6603 141.715Z" fill="#2C3351"/>
<path d="M72.9456 114.953C72.0228 110.831 74.9725 106.666 79.5339 105.65C84.0953 104.634 88.5411 107.152 89.4639 111.274C90.3866 115.396 87.3636 116.917 82.8022 117.933C78.2408 118.949 73.8683 119.075 72.9456 114.953Z" fill="#CE9EF2"/>
<path d="M96.3464 120.572C98.8213 118.102 100.197 115.471 99.4197 114.696C98.6422 113.921 96.0055 115.295 93.5306 117.766C91.0556 120.236 89.6796 122.868 90.4572 123.643C91.2348 124.418 93.8714 123.043 96.3464 120.572Z" fill="#2C3351"/>
<path d="M74.8202 124.437C75.5977 123.662 74.2217 121.031 71.7468 118.56C69.2718 116.09 66.6352 114.715 65.8576 115.49C65.08 116.265 66.456 118.896 68.931 121.367C71.4059 123.838 74.0426 125.212 74.8202 124.437Z" fill="#2C3351"/>
<path d="M153.508 53.2072C153.129 41.5188 145.103 32.2928 135.582 32.6002C114.393 33.2265 113.875 71.9856 134.333 74.7698L133.9 78.2042L140.218 78.0001L139.563 74.6009C147.793 72.7865 153.852 63.8041 153.508 53.2072Z" fill="#FF6584"/>
<path d="M125.046 59.6872L122.659 59.7642C121.723 55.3271 121.575 50.7606 122.221 46.2724L124.608 46.1953C123.726 50.8935 123.872 55.3908 125.046 59.6872Z" fill="white"/>
<path d="M140.528 74.5471L133.367 74.7783L133.419 76.3656L140.58 76.1343L140.528 74.5471Z" fill="#2C3351"/>
<path d="M119.729 135.326L119.008 134.99L136.737 75.0195L137.458 75.3565L119.729 135.326Z" fill="#2C3351"/>
<path d="M168.182 63.0911C172.511 52.2233 168.845 40.5686 159.992 37.0597C140.314 29.1971 124.329 64.5284 141.972 75.2266L140.2 78.2031L146.075 80.5317L146.835 77.1542C155.106 78.7674 164.256 72.9441 168.182 63.0911Z" fill="#B094EE"/>
<path d="M139.491 57.6998L137.272 56.8201C138.19 52.3792 139.881 48.1333 142.27 44.2754L144.489 45.1551C141.801 49.1118 140.135 53.2933 139.491 57.6998Z" fill="white"/>
<path d="M141.083 74.8503L140.495 76.3262L147.153 78.9653L147.741 77.4894L141.083 74.8503Z" fill="#2C3351"/>
<path d="M119.589 133.747L118.897 133.355L143.649 77.0117L144.341 77.4042L119.589 133.747Z" fill="#2C3351"/>
<path d="M33.6446 53.9623C28.9604 43.2418 18.084 37.6287 9.35162 41.4251C-10.1045 49.8203 3.77899 86.0246 23.8192 81.068L24.6895 84.4188L30.4846 81.8994L28.6163 78.9825C35.5905 74.2621 37.8915 63.6817 33.6446 53.9623Z" fill="#B094EE"/>
<path d="M9.59971 70.4791L7.41044 71.4309C4.8966 67.6531 3.06653 63.4648 2.00342 59.0563L4.19269 58.1045C5.11471 62.795 6.91705 66.9199 9.59971 70.4791Z" fill="white"/>
<path d="M29.4926 78.5773L22.9248 81.4326L23.5609 82.8884L30.1287 80.0331L29.4926 78.5773Z" fill="#2C3351"/>
<path d="M44.6886 135.48C44.5862 135.505 44.4778 135.489 44.3874 135.434C44.297 135.38 44.2319 135.292 44.2065 135.19L26.9036 80.5017L27.6762 80.3105L44.9791 134.999C44.9917 135.049 44.9942 135.102 44.9864 135.153C44.9786 135.205 44.9607 135.254 44.9337 135.299C44.9067 135.344 44.8712 135.383 44.8291 135.414C44.7871 135.445 44.7393 135.467 44.6886 135.48Z" fill="#2C3351"/>
<path d="M49.3131 152.771H7.6528C7.58243 152.771 7.51494 152.743 7.46517 152.693C7.41541 152.643 7.38745 152.576 7.38745 152.506C7.38745 152.436 7.41541 152.368 7.46517 152.319C7.51494 152.269 7.58243 152.241 7.6528 152.241H49.3131C49.3835 152.241 49.451 152.269 49.5008 152.319C49.5505 152.368 49.5785 152.436 49.5785 152.506C49.5785 152.576 49.5505 152.643 49.5008 152.693C49.451 152.743 49.3835 152.771 49.3131 152.771Z" fill="#CCCCCC"/>
<path d="M155.189 152.771H113.528C113.458 152.771 113.39 152.743 113.341 152.693C113.291 152.643 113.263 152.576 113.263 152.506C113.263 152.436 113.291 152.368 113.341 152.319C113.39 152.269 113.458 152.241 113.528 152.241H155.189C155.259 152.241 155.326 152.269 155.376 152.319C155.426 152.368 155.454 152.436 155.454 152.506C155.454 152.576 155.426 152.643 155.376 152.693C155.326 152.743 155.259 152.771 155.189 152.771Z" fill="#CCCCCC"/>
<path d="M105.568 141.918H63.9074C63.8371 141.918 63.7696 141.89 63.7198 141.841C63.67 141.791 63.6421 141.724 63.6421 141.653C63.6421 141.583 63.67 141.516 63.7198 141.466C63.7696 141.417 63.8371 141.389 63.9074 141.389H105.568C105.638 141.389 105.706 141.417 105.755 141.466C105.805 141.516 105.833 141.583 105.833 141.653C105.833 141.724 105.805 141.791 105.755 141.841C105.706 141.89 105.638 141.918 105.568 141.918Z" fill="#CCCCCC"/>
<path d="M83.5508 127.834C85.7079 127.834 87.4566 126.09 87.4566 123.938C87.4566 121.786 85.7079 120.042 83.5508 120.042C81.3937 120.042 79.645 121.786 79.645 123.938C79.645 126.09 81.3937 127.834 83.5508 127.834Z" fill="white"/>
<path d="M83.551 125.237C84.27 125.237 84.8529 124.656 84.8529 123.938C84.8529 123.221 84.27 122.64 83.551 122.64C82.8319 122.64 82.249 123.221 82.249 123.938C82.249 124.656 82.8319 125.237 83.551 125.237Z" fill="#2C3351"/>
<path d="M86.6513 131.143C86.772 131.804 86.6244 132.486 86.2411 133.039C85.8577 133.591 85.27 133.969 84.6073 134.09C83.9445 134.21 83.2609 134.063 82.7069 133.681C82.153 133.298 81.774 132.712 81.6533 132.051L81.6524 132.046C81.4025 130.669 82.4698 130.182 83.8502 129.933C85.2306 129.683 86.4014 129.766 86.6513 131.143Z" fill="white"/>
</g>
<defs>
<clipPath id="clip0">
<rect width="170" height="152.77" fill="white"/>
</clipPath>
</defs>
</svg>
